<?xml version="1.0" encoding="UTF-8"?>
<!DOCTYPE svg PUBLIC "-//W3C//DTD SVG 1.1//EN" "http://www.w3.org/Graphics/SVG/1.1/DTD/svg11.dtd">
<svg xmlns="http://www.w3.org/2000/svg" version="1.1" width="13654px" height="13655px" style="shape-rendering:geometricPrecision; text-rendering:geometricPrecision; image-rendering:optimizeQuality; fill-rule:evenodd; clip-rule:evenodd" xmlns:xlink="http://www.w3.org/1999/xlink">
<g><path style="opacity:0.986" fill="#000000" d="M 7051.5,2144.5 C 7061.65,2143.07 7069.82,2146.41 7076,2154.5C 7079.33,2161.17 7082.67,2167.83 7086,2174.5C 7128.61,2277.39 7170.94,2380.39 7213,2483.5C 7292.19,2404.64 7371.69,2326.14 7451.5,2248C 7455.5,2244.67 7459.5,2241.33 7463.5,2238C 7470.15,2232.34 7477.82,2229.67 7486.5,2230C 7494.86,2232.36 7499.69,2237.86 7501,2246.5C 7502.13,2261.64 7501.13,2276.64 7498,2291.5C 7468.74,2434.46 7439.74,2577.46 7411,2720.5C 7403.83,2740.93 7390.67,2745.77 7371.5,2735C 7362.9,2726.97 7360.07,2717.14 7363,2705.5C 7387.05,2592.92 7410.72,2480.25 7434,2367.5C 7436.09,2354.28 7435.09,2341.28 7431,2328.5C 7430.67,2328.17 7430.33,2327.83 7430,2327.5C 7364.47,2393.36 7298.64,2458.86 7232.5,2524C 7225.66,2530.5 7217.99,2535.84 7209.5,2540C 7200.1,2543.39 7192.6,2540.89 7187,2532.5C 7181.81,2524.12 7177.14,2515.45 7173,2506.5C 7138.47,2420.58 7104.14,2334.58 7070,2248.5C 7059.67,2265.17 7052.67,2283.17 7049,2302.5C 7029.26,2401.89 7009.26,2501.22 6989,2600.5C 6985.87,2615.22 6981.54,2629.55 6976,2643.5C 6967.21,2653.47 6957.05,2654.97 6945.5,2648C 6941.14,2643.41 6939.14,2637.91 6939.5,2631.5C 6940.05,2622.14 6940.88,2612.8 6942,2603.5C 6971.7,2457.36 7002.03,2311.36 7033,2165.5C 7035.22,2154.8 7041.38,2147.8 7051.5,2144.5 Z"/></g>
<g><path style="opacity:0.986" fill="#000000" d="M 6018.5,2213.5 C 6031.45,2214.61 6039.28,2221.61 6042,2234.5C 6073.84,2374.2 6105.84,2513.86 6138,2653.5C 6140.49,2666.44 6142.66,2679.44 6144.5,2692.5C 6143.07,2716.2 6131.41,2723.7 6109.5,2715C 6106.73,2712.62 6104.56,2709.78 6103,2706.5C 6101,2700.5 6099,2694.5 6097,2688.5C 6064.21,2549.02 6032.21,2409.35 6001,2269.5C 5995.94,2256.95 5993.61,2243.95 5994,2230.5C 5995.67,2224.16 5999.51,2219.66 6005.5,2217C 6009.86,2215.42 6014.19,2214.25 6018.5,2213.5 Z"/></g>
<g><path style="opacity:0.987" fill="#000000" d="M 6417.5,2274.5 C 6440.3,2273.05 6462.64,2275.55 6484.5,2282C 6508.58,2291.42 6527.08,2307.25 6540,2329.5C 6554.07,2355.45 6562.74,2383.12 6566,2412.5C 6569.75,2458.68 6575.09,2504.68 6582,2550.5C 6585.04,2578.1 6586.71,2605.77 6587,2633.5C 6582.59,2646.8 6573.42,2651.96 6559.5,2649C 6551.16,2645.65 6545.99,2639.48 6544,2630.5C 6536.07,2561.2 6528.4,2491.86 6521,2422.5C 6508.75,2330.46 6458.59,2298.96 6370.5,2328C 6318.54,2351.41 6294.38,2391.57 6298,2448.5C 6301.15,2487.21 6304.82,2525.88 6309,2564.5C 6311.36,2595.64 6313.19,2626.8 6314.5,2658C 6313.54,2673.67 6305.21,2680.01 6289.5,2677C 6280.55,2673.7 6275.72,2667.2 6275,2657.5C 6262.78,2552.53 6250.78,2447.53 6239,2342.5C 6233.78,2321.23 6241.78,2308.9 6263,2305.5C 6268.72,2306.36 6273.38,2309.02 6277,2313.5C 6280.85,2320.71 6284.52,2328.04 6288,2335.5C 6290,2338.17 6292,2340.83 6294,2343.5C 6312.92,2324.47 6333.76,2307.97 6356.5,2294C 6375.64,2283.34 6395.98,2276.84 6417.5,2274.5 Z"/></g>
<g><path style="opacity:0.986" fill="#000000" d="M 7746.5,2487.5 C 7828.99,2485.31 7890.15,2519.97 7930,2591.5C 7959.68,2660.7 7954.68,2727.36 7915,2791.5C 7884.11,2839.38 7840.94,2870.21 7785.5,2884C 7715.57,2894.92 7656.74,2874.42 7609,2822.5C 7568.68,2772.55 7554.68,2715.89 7567,2652.5C 7581.65,2583.21 7620.81,2533.38 7684.5,2503C 7704.51,2494.66 7725.17,2489.5 7746.5,2487.5 Z M 7756.5,2529.5 C 7825.82,2530.05 7872.32,2562.72 7896,2627.5C 7912.71,2697.53 7895.21,2757.37 7843.5,2807C 7794.06,2846.68 7740.39,2853.35 7682.5,2827C 7633.17,2798.22 7607.51,2755.05 7605.5,2697.5C 7608.64,2630.33 7638.98,2579.83 7696.5,2546C 7715.59,2536.68 7735.59,2531.18 7756.5,2529.5 Z"/></g>
<g><path style="opacity:0.986" fill="#000000" d="M 5538.5,2514.5 C 5593.74,2511.89 5640.57,2530.22 5679,2569.5C 5691.84,2583.83 5702.17,2599.83 5710,2617.5C 5714.03,2628.56 5711.53,2637.73 5702.5,2645C 5680.43,2657.7 5657.76,2669.37 5634.5,2680C 5587.83,2701.67 5541.17,2723.33 5494.5,2745C 5482.85,2750.49 5471.52,2756.49 5460.5,2763C 5457.1,2765.28 5454.26,2768.11 5452,2771.5C 5450.57,2775.41 5450.23,2779.41 5451,2783.5C 5479.74,2834.48 5523.57,2861.48 5582.5,2864.5C 5634.53,2862.74 5675.37,2840.74 5705,2798.5C 5712.92,2782.99 5720.59,2767.32 5728,2751.5C 5733.29,2743.54 5740.45,2741.37 5749.5,2745C 5763.52,2751.21 5767.35,2761.38 5761,2775.5C 5753.08,2792.63 5744.41,2809.3 5735,2825.5C 5702.2,2873.17 5656.7,2899.67 5598.5,2905C 5519.64,2911.99 5459.47,2882.15 5418,2815.5C 5398.92,2783.59 5386.59,2749.26 5381,2712.5C 5375.4,2648.24 5396.56,2594.74 5444.5,2552C 5472.12,2530.18 5503.46,2517.68 5538.5,2514.5 Z M 5551.5,2556.5 C 5575.98,2556.91 5597.98,2564.41 5617.5,2579C 5633.65,2591.31 5647.98,2605.48 5660.5,2621.5C 5591.99,2654.26 5523.32,2686.76 5454.5,2719C 5436.32,2726.42 5425.82,2720.58 5423,2701.5C 5420.37,2643.52 5444.2,2600.35 5494.5,2572C 5512.72,2563.42 5531.72,2558.25 5551.5,2556.5 Z"/></g>
<g><path style="opacity:0.987" fill="#000000" d="M 8224.5,2609.5 C 8239.09,2608.27 8247.76,2614.77 8250.5,2629C 8249.01,2636.48 8246.51,2643.65 8243,2650.5C 8236.44,2661.06 8229.11,2671.06 8221,2680.5C 8214.1,2689.86 8211.76,2700.19 8214,2711.5C 8216.31,2716.61 8219.47,2721.11 8223.5,2725C 8233.84,2731.84 8244.5,2738.17 8255.5,2744C 8262.82,2748.98 8268.32,2755.48 8272,2763.5C 8273.9,2777.02 8268.07,2784.68 8254.5,2786.5C 8249.69,2785.9 8245.02,2784.74 8240.5,2783C 8228.28,2777.39 8215.95,2772.06 8203.5,2767C 8197.51,2764.79 8191.34,2763.29 8185,2762.5C 8180.12,2762.85 8175.62,2764.35 8171.5,2767C 8168,2770.5 8164.5,2774 8161,2777.5C 8120.55,2837.96 8080.88,2898.96 8042,2960.5C 8038.1,2967.2 8035.6,2974.37 8034.5,2982C 8035.68,2990.87 8039.18,2998.7 8045,3005.5C 8053.71,3015.21 8062.04,3025.21 8070,3035.5C 8072.59,3046.82 8068.42,3054.65 8057.5,3059C 8026.29,3057.46 8003.79,3042.63 7990,3014.5C 7983.36,2994.79 7984.36,2975.46 7993,2956.5C 7998.93,2944.91 8005.27,2933.58 8012,2922.5C 8054.62,2857.42 8097.12,2792.25 8139.5,2727C 8134.55,2719.78 8128.88,2713.11 8122.5,2707C 8111.88,2701.72 8102.38,2694.88 8094,2686.5C 8090.48,2681.54 8089.81,2676.21 8092,2670.5C 8094.05,2664.9 8097.21,2660.06 8101.5,2656C 8108.67,2652.47 8115.67,2652.8 8122.5,2657C 8130.31,2663.41 8138.65,2669.08 8147.5,2674C 8159.92,2679.26 8170.42,2676.76 8179,2666.5C 8190.6,2648.97 8202.93,2631.97 8216,2615.5C 8218.67,2613.1 8221.5,2611.1 8224.5,2609.5 Z"/></g>
<g><path style="opacity:0.986" fill="#000000" d="M 5168.5,2727.5 C 5180.88,2727.16 5193.21,2727.66 5205.5,2729C 5215.94,2729.92 5224.77,2734.08 5232,2741.5C 5236.81,2755.47 5232.31,2764.64 5218.5,2769C 5204.18,2768.59 5189.85,2768.59 5175.5,2769C 5129.11,2773.59 5095.28,2796.42 5074,2837.5C 5064.36,2863.77 5069.86,2886.27 5090.5,2905C 5105.77,2914.72 5122.44,2918.05 5140.5,2915C 5149.97,2913.63 5159.3,2911.63 5168.5,2909C 5199.59,2898.86 5230.93,2889.52 5262.5,2881C 5326.85,2869.74 5368.35,2895.24 5387,2957.5C 5392.37,2991.37 5384.03,3021.37 5362,3047.5C 5313.03,3106.71 5250.53,3129.55 5174.5,3116C 5163.77,3113.59 5155.61,3107.75 5150,3098.5C 5147.77,3085.1 5153.27,3077.27 5166.5,3075C 5184.67,3075.8 5202.84,3076.96 5221,3078.5C 5272.86,3077.41 5312.52,3055.08 5340,3011.5C 5355.73,2981.25 5350.56,2955.08 5324.5,2933C 5311.93,2924.02 5297.93,2920.36 5282.5,2922C 5248.26,2929.63 5214.6,2939.3 5181.5,2951C 5156.58,2958.36 5131.25,2960.36 5105.5,2957C 5056.88,2946.09 5031.21,2915.76 5028.5,2866C 5029.19,2837.14 5038.69,2811.64 5057,2789.5C 5086.55,2755.14 5123.72,2734.47 5168.5,2727.5 Z"/></g>
<g><path style="opacity:0.978" fill="#000000" d="M 8440.5,2737.5 C 8462.96,2737.79 8474.13,2749.13 8474,2771.5C 8466.61,2797.27 8450.78,2804.1 8426.5,2792C 8417.29,2784.64 8413.79,2775.14 8416,2763.5C 8417.92,2748.75 8426.08,2740.09 8440.5,2737.5 Z"/></g>
<g><path style="opacity:0.016" fill="#000000" d="M 6656.5,2780.5 C 6979.85,2774.54 7291.18,2832.37 7590.5,2954C 7990.57,3121.75 8317.74,3381.25 8572,3732.5C 8774.48,4017.61 8906.32,4333.28 8967.5,4679.5C 8983.91,4788.21 8992.41,4897.54 8993,5007.5C 8993.35,6015.17 8993.19,7022.83 8992.5,8030.5C 8928.41,7997.79 8864.08,7965.62 8799.5,7934C 8762.14,7918.21 8723.81,7905.21 8684.5,7895C 8609.29,7879.07 8534.62,7881.41 8460.5,7902C 8392.61,7921.51 8328.28,7949.18 8267.5,7985C 8205.56,8022.26 8147.56,8064.93 8093.5,8113C 8051.56,8151.6 8010.23,8190.94 7969.5,8231C 7917.99,8279.58 7861.65,8321.58 7800.5,8357C 7682.07,8422.44 7556.74,8440.78 7424.5,8412C 7347.31,8390.1 7284.14,8347.6 7235,8284.5C 7226.8,8273.93 7218.97,8263.1 7211.5,8252C 7206.88,8248.18 7201.55,8246.01 7195.5,8245.5C 7182.83,8429.87 7204.5,8610.87 7260.5,8788.5C 7269.21,8791.63 7277.54,8790.8 7285.5,8786C 7385.4,8711.91 7497.07,8664.25 7620.5,8643C 7741.33,8622.98 7862.67,8619.32 7984.5,8632C 8048.51,8639.67 8111.51,8652.34 8173.5,8670C 8208.58,8674.97 8237.42,8663.81 8260,8636.5C 8319.81,8562.36 8378.48,8487.36 8436,8411.5C 8478.5,8355.67 8527.67,8306.5 8583.5,8264C 8652.6,8214.62 8728.27,8178.29 8810.5,8155C 8858.5,8142 8906.5,8129 8954.5,8116C 8963.12,8113.28 8971.29,8114.11 8979,8118.5C 8987.58,8131.27 8988.58,8144.61 8982,8158.5C 8977.57,8163.64 8972.07,8167.14 8965.5,8169C 8933.66,8177.3 8901.66,8184.97 8869.5,8192C 8711.19,8234.03 8579.69,8317.53 8475,8442.5C 8461.62,8458.88 8448.62,8475.55 8436,8492.5C 8417.4,8520.03 8398.07,8547.03 8378,8573.5C 8346.83,8612.67 8315.67,8651.83 8284.5,8691C 8338.28,8708.11 8392.95,8721.78 8448.5,8732C 8539.11,8749.24 8630.44,8760.58 8722.5,8766C 8795.92,8769.66 8868.58,8763.99 8940.5,8749C 8951.54,8746.6 8959.37,8750.44 8964,8760.5C 8969.63,8787.9 8958.46,8803.4 8930.5,8807C 8860.58,8818.01 8790.25,8822.01 8719.5,8819C 8618.49,8814.38 8518.49,8801.71 8419.5,8781C 8388.47,8774.49 8357.47,8767.82 8326.5,8761C 8251.54,8743.18 8176.54,8725.51 8101.5,8708C 7968.35,8678.58 7834.01,8671.25 7698.5,8686C 7603.87,8697.07 7512.87,8721.41 7425.5,8759C 7384.32,8778.41 7345.99,8802.07 7310.5,8830C 7289.95,8849.63 7285.78,8872.46 7298,8898.5C 7382.91,9113.21 7514.74,9293.38 7693.5,9439C 7722,9459.83 7754,9471.17 7789.5,9473C 7886.25,9477.98 7974.91,9453.98 8055.5,9401C 8129.18,9350.35 8198.52,9294.01 8263.5,9232C 8354.19,9154.99 8459.36,9119.16 8579,9124.5C 8682.49,9123.23 8785.99,9122.73 8889.5,9123C 8899.48,9125.25 8904.15,9131.59 8903.5,9142C 8902.96,9168.03 8889.79,9178.87 8864,9174.5C 8771.17,9177.69 8678.34,9178.03 8585.5,9175.5C 8470.24,9174.52 8369.24,9211.35 8282.5,9286C 8262.17,9305.67 8241.83,9325.33 8221.5,9345C 8155.41,9403.36 8082.07,9451.02 8001.5,9488C 7947.84,9510.8 7891.84,9522.47 7833.5,9523C 7847.34,9538.85 7863.01,9552.51 7880.5,9564C 7933.29,9597.4 7989.29,9624.4 8048.5,9645C 8103.72,9664.89 8160.06,9680.89 8217.5,9693C 8273.78,9704.71 8330.44,9714.05 8387.5,9721C 8435.66,9725.92 8483.66,9724.58 8531.5,9717C 8576.63,9709.61 8621.29,9700.11 8665.5,9688.5C 8664.65,9704.9 8660.48,9720.57 8653,9735.5C 8645.04,9745.91 8634.54,9752.41 8621.5,9755C 8568.09,9768.01 8513.92,9775.51 8459,9777.5C 7910.21,9744.15 7517.21,9481.15 7280,8988.5C 7210.08,8843.82 7166.41,8691.49 7149,8531.5C 7140.77,8459.57 7136.93,8387.4 7137.5,8315C 7139.44,8192.5 7141.27,8070 7143,7947.5C 7145.61,7865.79 7149.11,7784.13 7153.5,7702.5C 7153.99,7603.77 7138.16,7507.77 7106,7414.5C 7094.5,7386.5 7083.83,7358.16 7074,7329.5C 7038.9,7214.52 7033.9,7098.18 7059,6980.5C 7074.3,6909.94 7095.63,6841.27 7123,6774.5C 7145.8,6716.89 7170.8,6660.23 7198,6604.5C 7236.27,6531.96 7269.61,6457.29 7298,6380.5C 7313.62,6336.01 7326.12,6290.68 7335.5,6244.5C 7335.33,6238.47 7333.83,6232.8 7331,6227.5C 7299.39,6249.72 7268.22,6272.56 7237.5,6296C 7204.18,6322.65 7175.01,6353.15 7150,6387.5C 7143.16,6397.84 7136.83,6408.5 7131,6419.5C 7123.56,6432.98 7112.4,6438.14 7097.5,6435C 7089.59,6430.02 7085.09,6422.86 7084,6413.5C 7084.29,6378.65 7081.96,6343.98 7077,6309.5C 7073.95,6293.02 7069.28,6277.02 7063,6261.5C 7034.19,6205.25 7014.69,6145.92 7004.5,6083.5C 6996.52,6083.32 6989.69,6085.99 6984,6091.5C 6973.05,6110.4 6960.38,6128.07 6946,6144.5C 6916.1,6179.07 6883.6,6210.9 6848.5,6240C 6818.21,6263.29 6788.21,6286.95 6758.5,6311C 6742.83,6325.33 6727.83,6340.33 6713.5,6356C 6691.7,6373.78 6671.2,6372.28 6652,6351.5C 6611.12,6306.62 6568.79,6262.95 6525,6220.5C 6489.71,6184.22 6457.04,6145.89 6427,6105.5C 6395.47,6061.77 6372.47,6013.77 6358,5961.5C 6351.53,5933.79 6349.86,5905.79 6353,5877.5C 6356.1,5853.37 6369.6,5843.53 6393.5,5848C 6400.68,5851.18 6404.85,5856.68 6406,5864.5C 6402.08,5910.09 6409.42,5953.76 6428,5995.5C 6445.84,6031.21 6467.17,6064.54 6492,6095.5C 6505.63,6112.13 6519.63,6128.46 6534,6144.5C 6569.69,6180.53 6605.69,6216.19 6642,6251.5C 6651.83,6262 6661.67,6272.5 6671.5,6283C 6683.34,6292.61 6695.34,6292.61 6707.5,6283C 6755.13,6241.86 6803.13,6201.19 6851.5,6161C 6933.14,6085.03 6976.81,5991.03 6982.5,5879C 6982.87,5863.36 6980.37,5848.19 6975,5833.5C 6969.26,5821.01 6963.26,5808.68 6957,5796.5C 6948.26,5772.79 6939.43,5749.12 6930.5,5725.5C 6878.91,5789.95 6825.41,5852.95 6770,5914.5C 6760.06,5929.86 6748.56,5944.02 6735.5,5957C 6722.32,5968.92 6707.99,5970.58 6692.5,5962C 6688.66,5959.58 6684.99,5956.91 6681.5,5954C 6628.03,5898.86 6574.2,5844.03 6520,5789.5C 6488.2,5755.53 6459.53,5719.2 6434,5680.5C 6430.96,5682.17 6427.96,5683.84 6425,5685.5C 6375.91,5792.6 6303.41,5880.43 6207.5,5949C 6187.34,5962.91 6167.01,5976.58 6146.5,5990C 6130.64,6002.94 6117.47,6018.1 6107,6035.5C 6099.29,6050.63 6091.95,6065.96 6085,6081.5C 6078.99,6092.92 6069.49,6098.26 6056.5,6097.5C 6041.44,6096.41 6026.6,6094.07 6012,6090.5C 6011.83,6090.83 6011.67,6091.17 6011.5,6091.5C 6030.72,6124.55 6053.22,6155.22 6079,6183.5C 6097.89,6203.06 6117.39,6221.89 6137.5,6240C 6172.98,6269.91 6208.65,6299.57 6244.5,6329C 6259.81,6341.92 6274.64,6355.42 6289,6369.5C 6297.19,6356.41 6301.53,6342.08 6302,6326.5C 6301.39,6255.84 6301.39,6185.18 6302,6114.5C 6302.49,6104.71 6303.83,6095.05 6306,6085.5C 6313.34,6072.09 6324.5,6067.25 6339.5,6071C 6347.77,6073.6 6352.93,6079.1 6355,6087.5C 6359.18,6106.94 6361.18,6126.61 6361,6146.5C 6361.6,6181.17 6361.27,6215.84 6360,6250.5C 6357.12,6316.86 6353.79,6383.19 6350,6449.5C 6346.44,6476.7 6331.27,6487.2 6304.5,6481C 6300.66,6478.92 6297,6476.58 6293.5,6474C 6280.33,6457.5 6267.17,6441 6254,6424.5C 6229.03,6396.86 6202.2,6371.36 6173.5,6348C 6155,6333.5 6136.5,6319 6118,6304.5C 6113.32,6351.43 6120.65,6396.43 6140,6439.5C 6168.76,6498.86 6200.76,6556.19 6236,6611.5C 6366.38,6834.16 6396.71,7069.83 6327,7318.5C 6304.15,7426 6290.48,7534.67 6286,7644.5C 6284.63,7673.82 6283.63,7703.15 6283,7732.5C 6281.36,7881.55 6283.36,8030.55 6289,8179.5C 6293.53,8297.17 6298.03,8414.83 6302.5,8532.5C 6301.34,8616.46 6293.5,8699.79 6279,8782.5C 6265.81,8858.44 6249.81,8933.77 6231,9008.5C 6217.62,9050.93 6199.62,9091.27 6177,9129.5C 6110.94,9234.95 6032.11,9330.45 5940.5,9416C 5815.42,9530.14 5671.42,9612.81 5508.5,9664C 5426.32,9690.5 5343.32,9714.17 5259.5,9735C 5122.58,9769.4 4983.58,9783.73 4842.5,9778C 4815.1,9778.4 4802.93,9764.9 4806,9737.5C 4807.5,9732 4811,9728.5 4816.5,9727C 4827.11,9725.76 4837.78,9725.1 4848.5,9725C 4956.55,9729.07 5063.55,9720.4 5169.5,9699C 5305.87,9669.99 5439.53,9631.65 5570.5,9584C 5682.67,9539.12 5784.34,9477.79 5875.5,9400C 5915.6,9365.24 5953.76,9328.41 5990,9289.5C 5996.47,9281.73 6000.97,9272.89 6003.5,9263C 5986.92,9251.38 5968.92,9242.38 5949.5,9236C 5877.6,9215.29 5804.26,9203.79 5729.5,9201.5C 5652.17,9202.33 5577.51,9216.83 5505.5,9245C 5435.72,9272.89 5365.72,9300.22 5295.5,9327C 5205.43,9359.09 5112.6,9375.93 5017,9377.5C 4871.95,9375.92 4739.78,9334.42 4620.5,9253C 4596.15,9232.13 4585.15,9205.63 4587.5,9173.5C 4596.07,9174.08 4604.07,9176.58 4611.5,9181C 4805.38,9325.14 5017.72,9359.8 5248.5,9285C 5322.46,9258.57 5395.79,9230.57 5468.5,9201C 5616.65,9140.93 5767.65,9132.93 5921.5,9177C 5954.91,9186.8 5987.91,9197.8 6020.5,9210C 6033.68,9213.88 6046.02,9211.88 6057.5,9204C 6068.8,9192.37 6078.97,9179.87 6088,9166.5C 6158.33,9065.11 6200.16,8952.78 6213.5,8829.5C 6213.17,8825.17 6211.84,8821.17 6209.5,8817.5C 6198.54,8815.98 6188.54,8818.48 6179.5,8825C 6159.66,8839.43 6138.66,8852.09 6116.5,8863C 5916.84,8967.4 5704.51,9013.4 5479.5,9001C 5299.03,8983.53 5152.2,8904.7 5039,8764.5C 4986.28,8696.79 4933.95,8628.79 4882,8560.5C 4812.83,8480.32 4728.67,8421.49 4629.5,8384C 4592.94,8372.03 4556.27,8360.36 4519.5,8349C 4506.85,8344.78 4494.51,8339.78 4482.5,8334C 4474.16,8325.49 4471.33,8315.32 4474,8303.5C 4474.78,8296.05 4478.61,8290.89 4485.5,8288C 4491.89,8287.24 4498.22,8287.58 4504.5,8289C 4570.49,8305.89 4634.82,8327.55 4697.5,8354C 4771.26,8385.77 4835.43,8430.94 4890,8489.5C 4960.19,8574.35 5028.85,8660.35 5096,8747.5C 5203.61,8872.05 5340.11,8939.22 5505.5,8949C 5729.71,8955.45 5939.71,8904.11 6135.5,8795C 6158.56,8782.55 6179.4,8767.05 6198,8748.5C 6225.01,8718.83 6240.01,8683.83 6243,8643.5C 6250.87,8544.77 6250.2,8446.1 6241,8347.5C 6240.58,8340.38 6239.58,8333.38 6238,8326.5C 6198.2,8363.3 6158.7,8400.47 6119.5,8438C 6013.3,8531.17 5889.3,8571.17 5747.5,8558C 5675.77,8551.99 5605.77,8537.65 5537.5,8515C 5485.26,8492.28 5441.09,8458.78 5405,8414.5C 5387.78,8393.27 5372.11,8370.94 5358,8347.5C 5308.52,8257.84 5255.52,8170.5 5199,8085.5C 5072.54,7904.14 4898.04,7807.31 4675.5,7795C 4630.12,7792.61 4584.79,7793.28 4539.5,7797C 4521.41,7798.12 4503.41,7797.45 4485.5,7795C 4477.5,7793 4472,7788.16 4469,7780.5C 4466.3,7771.71 4464.97,7762.71 4465,7753.5C 4464.67,7720.5 4464.33,7687.5 4464,7654.5C 4457.51,6847.17 4451.18,6039.83 4445,5232.5C 4427.61,4952.06 4455.94,4676.39 4530,4405.5C 4627.97,4060.74 4799.3,3759.4 5044,3501.5C 5220.79,3315.61 5421.29,3161.44 5645.5,3039C 5928.7,2888.17 6230.7,2803.5 6551.5,2785C 6586.64,2783.08 6621.64,2781.58 6656.5,2780.5 Z M 7013.5,3416.5 C 7065.69,3505.56 7097.19,3601.56 7108,3704.5C 7110.48,3730.82 7110.81,3757.15 7109,3783.5C 7106.47,3799.89 7100.13,3814.56 7090,3827.5C 7071.26,3844.12 7052.43,3860.62 7033.5,3877C 6934.79,3971.51 6865.95,4084.68 6827,4216.5C 6818.35,4225.04 6811.35,4223.71 6806,4212.5C 6807.8,4140.18 6801.8,4068.51 6788,3997.5C 6779.86,3958.75 6767.53,3921.41 6751,3885.5C 6744.05,3871.92 6737.38,3858.26 6731,3844.5C 6727.68,3829.45 6729.68,3815.11 6737,3801.5C 6761.1,3751.77 6791.1,3706.11 6827,3664.5C 6853.3,3635.86 6879.97,3607.53 6907,3579.5C 6936.08,3547.1 6962.08,3512.43 6985,3475.5C 6996.12,3456.6 7005.62,3436.93 7013.5,3416.5 Z M 6377.5,3469.5 C 6384.38,3470.51 6390.22,3473.51 6395,3478.5C 6411.58,3522.01 6433.58,3562.34 6461,3599.5C 6471.62,3613.79 6482.62,3627.79 6494,3641.5C 6531.81,3684.46 6569.14,3727.79 6606,3771.5C 6629.05,3799.93 6650.38,3829.6 6670,3860.5C 6714.33,3936.13 6738.33,4017.79 6742,4105.5C 6740.88,4111.91 6738.04,4117.41 6733.5,4122C 6732.09,4122.32 6730.76,4121.98 6729.5,4121C 6715.25,4111.07 6705.08,4097.9 6699,4081.5C 6694.72,4070.01 6690.06,4058.67 6685,4047.5C 6677.6,4027.29 6670.6,4006.96 6664,3986.5C 6652.28,3966.93 6636.12,3962.1 6615.5,3972C 6612.33,3975.17 6609.17,3978.33 6606,3981.5C 6540.5,4104.01 6499.5,4234.34 6483,4372.5C 6480.68,4384.48 6475.68,4395.14 6468,4404.5C 6445.06,4365.9 6434.56,4324.06 6436.5,4279C 6437.23,4252.15 6438.4,4225.32 6440,4198.5C 6447.11,4106.82 6430.44,4019.82 6390,3937.5C 6342.42,3876.08 6319.58,3806.24 6321.5,3728C 6322.79,3667.63 6330.62,3608.13 6345,3549.5C 6352.42,3521.39 6363.26,3494.72 6377.5,3469.5 Z M 7392.5,3679.5 C 7398.84,3760.52 7387,3839.19 7357,3915.5C 7332.33,3978.21 7299,4035.55 7257,4087.5C 7237.58,4107.27 7216.42,4124.77 7193.5,4140C 7117.12,4202.68 7055.96,4277.51 7010,4364.5C 6990.53,4401.1 6973.53,4438.77 6959,4477.5C 6952.08,4494.7 6941.75,4509.36 6928,4521.5C 6905.33,4456.83 6882.67,4392.17 6860,4327.5C 6859.33,4323.17 6859.33,4318.83 6860,4314.5C 6883.41,4217.71 6921.08,4127.04 6973,4042.5C 7019.17,3971.33 7076.67,3910.83 7145.5,3861C 7183.34,3836.92 7221,3812.58 7258.5,3788C 7302.78,3751.21 7347.44,3715.04 7392.5,3679.5 Z M 5984.5,3718.5 C 5990.89,3717.79 5996.89,3718.96 6002.5,3722C 6009.89,3727.72 6017.56,3733.06 6025.5,3738C 6080.69,3768.43 6136.36,3798.1 6192.5,3827C 6308.42,3890.06 6370.59,3987.89 6379,4120.5C 6380.82,4173.35 6380.32,4226.18 6377.5,4279C 6376.49,4340.78 6390.32,4398.94 6419,4453.5C 6431.35,4475.18 6446.02,4495.18 6463,4513.5C 6471.26,4525.26 6476.59,4538.26 6479,4552.5C 6483.62,4602.95 6493.62,4652.28 6509,4700.5C 6523.31,4742.12 6542.65,4781.12 6567,4817.5C 6572.31,4825.15 6579.15,4830.98 6587.5,4835C 6603.31,4838.01 6615.14,4832.51 6623,4818.5C 6625.27,4809.49 6624.27,4800.82 6620,4792.5C 6556.34,4688.56 6528.34,4575.56 6536,4453.5C 6542.13,4353.86 6560.46,4256.52 6591,4161.5C 6600.65,4133.87 6612.98,4107.54 6628,4082.5C 6677.33,4142.51 6722,4205.84 6762,4272.5C 6816.85,4364.55 6852.85,4463.55 6870,4569.5C 6878.24,4620.05 6877.24,4670.38 6867,4720.5C 6860.24,4742.55 6854.57,4764.88 6850,4787.5C 6847.78,4811.28 6858.61,4822.78 6882.5,4822C 6893.06,4819.78 6900.22,4813.61 6904,4803.5C 6920.09,4755.79 6932.43,4707.12 6941,4657.5C 6944.44,4645.96 6948.44,4634.63 6953,4623.5C 6965.02,4600.14 6977.02,4576.8 6989,4553.5C 7021.81,4454.51 7071.14,4365.18 7137,4285.5C 7186.6,4226.9 7241.1,4173.4 7300.5,4125C 7333.45,4099.71 7366.12,4074.05 7398.5,4048C 7461.25,3992.96 7514.75,3930.46 7559,3860.5C 7564.32,3854.92 7570.82,3851.59 7578.5,3850.5C 7579.88,3861.2 7579.71,3871.87 7578,3882.5C 7545.36,4015.76 7500.03,4144.42 7442,4268.5C 7395.35,4366.54 7338.69,4457.88 7272,4542.5C 7233.98,4588.85 7191.15,4630.02 7143.5,4666C 7100.89,4697.12 7053.89,4719.45 7002.5,4733C 6980.02,4741.66 6974.86,4756.49 6987,4777.5C 6992.8,4784.9 7000.47,4788.57 7010,4788.5C 7048.89,4783.54 7085.39,4771.37 7119.5,4752C 7223.71,4691.12 7307.55,4609.29 7371,4506.5C 7398.06,4468.7 7434.22,4443.86 7479.5,4432C 7492,4428.57 7504.67,4425.9 7517.5,4424C 7582.22,4414.78 7647.22,4408.45 7712.5,4405C 7790.74,4394.37 7862.4,4367.04 7927.5,4323C 7931.74,4321.54 7936.07,4321.21 7940.5,4322C 7943.32,4322.57 7945.65,4323.91 7947.5,4326C 7937.2,4351.78 7923.7,4375.62 7907,4397.5C 7847.91,4473.61 7782.07,4543.77 7709.5,4608C 7580.09,4720.22 7431.76,4798.22 7264.5,4842C 7242.94,4847.33 7221.28,4847.83 7199.5,4843.5C 7178.52,4845.09 7169.02,4856.43 7171,4877.5C 7174.59,4886.43 7180.43,4893.6 7188.5,4899C 7212.25,4914.88 7234.91,4932.21 7256.5,4951C 7307.53,5001.85 7345.36,5061.35 7370,5129.5C 7405.27,5224.6 7415.27,5322.26 7400,5422.5C 7394.44,5454.84 7385.44,5486.17 7373,5516.5C 7369.38,5524.26 7364.88,5531.42 7359.5,5538C 7355.06,5537.52 7350.89,5536.02 7347,5533.5C 7330.51,5480.16 7303.51,5433.16 7266,5392.5C 7234.94,5359.43 7201.44,5329.26 7165.5,5302C 7121.33,5264.5 7080.5,5223.67 7043,5179.5C 7007.59,5135.72 6979.59,5087.39 6959,5034.5C 6954.59,5022.76 6946.76,5014.26 6935.5,5009C 6921.13,5007.27 6911.3,5013.1 6906,5026.5C 6905.28,5032.22 6905.62,5037.89 6907,5043.5C 6925.84,5104.18 6954.84,5159.18 6994,5208.5C 7051.35,5278.18 7115.51,5340.68 7186.5,5396C 7239.2,5441.21 7273.7,5497.71 7290,5565.5C 7291.55,5572.79 7292.88,5580.13 7294,5587.5C 7296.11,5609.53 7298.45,5631.53 7301,5653.5C 7307.92,5670.71 7320.42,5676.88 7338.5,5672C 7349.15,5666.69 7357.98,5659.19 7365,5649.5C 7396.91,5608.36 7421.58,5563.03 7439,5513.5C 7443.24,5505.92 7448.91,5499.59 7456,5494.5C 7459.01,5515.85 7457.34,5536.85 7451,5557.5C 7424.11,5649.18 7375.61,5727.02 7305.5,5791C 7265.21,5822.29 7225.21,5853.95 7185.5,5886C 7161.07,5907.1 7137.23,5928.93 7114,5951.5C 7085.09,5909.23 7057.75,5865.9 7032,5821.5C 7012.54,5785.78 6998.21,5748.12 6989,5708.5C 6981.33,5675.95 6980.66,5643.28 6987,5610.5C 6992.13,5591.44 6997.46,5572.44 7003,5553.5C 7018.45,5494.11 7021.45,5434.11 7012,5373.5C 7008.06,5353.69 7001.73,5334.69 6993,5316.5C 6981.93,5301.16 6968.09,5298.33 6951.5,5308C 6945.6,5311.92 6942.1,5317.42 6941,5324.5C 6940.31,5330.88 6940.64,5337.22 6942,5343.5C 6952.48,5376.34 6957.31,5410 6956.5,5444.5C 6956.54,5503.34 6944.71,5559.68 6921,5613.5C 6902.35,5654.75 6879.69,5693.41 6853,5729.5C 6838.82,5748.53 6824.15,5767.2 6809,5785.5C 6780.72,5817.24 6752.55,5849.07 6724.5,5881C 6715.17,5888.33 6705.83,5888.33 6696.5,5881C 6671.44,5855.27 6645.78,5830.27 6619.5,5806C 6587.53,5774.71 6557.03,5742.21 6528,5708.5C 6509.52,5686.22 6493.52,5662.22 6480,5636.5C 6456.6,5583.55 6450.27,5528.55 6461,5471.5C 6466.17,5442.15 6473.84,5413.49 6484,5385.5C 6488.72,5374.78 6496.22,5366.61 6506.5,5361C 6529.59,5351.64 6552.25,5341.3 6574.5,5330C 6659.46,5282.34 6715.62,5211.5 6743,5117.5C 6749.22,5094.71 6754.56,5071.71 6759,5048.5C 6763.52,5026.37 6754.69,5013.53 6732.5,5010C 6719.72,5008.14 6710.56,5012.97 6705,5024.5C 6700.36,5041.67 6696.36,5059.01 6693,5076.5C 6667.68,5181.8 6605.51,5255.97 6506.5,5299C 6490.5,5305 6474.5,5311 6458.5,5317C 6434.95,5328.6 6413.28,5342.93 6393.5,5360C 6376.67,5375.5 6359.83,5391 6343,5406.5C 6320.98,5348.74 6307.31,5289.07 6302,5227.5C 6297.62,5162.12 6309.29,5099.78 6337,5040.5C 6355.31,5002.52 6376.64,4966.52 6401,4932.5C 6408.33,4923.83 6415.67,4915.17 6423,4906.5C 6433.95,4888.46 6429.78,4874.96 6410.5,4866C 6401.79,4864.28 6393.79,4865.95 6386.5,4871C 6378.4,4877.1 6370.9,4883.93 6364,4891.5C 6332.04,4934.19 6304.04,4979.52 6280,5027.5C 6254.44,5080.96 6243.11,5137.3 6246,5196.5C 6244.63,5218.4 6235.47,5236.23 6218.5,5250C 6168.61,5283.97 6113.61,5304.97 6053.5,5313C 5999.23,5315.99 5945.56,5323.33 5892.5,5335C 5823.46,5350.69 5761.13,5380.03 5705.5,5423C 5701.58,5423.2 5697.75,5423.7 5694,5424.5C 5688.97,5417.91 5686.47,5410.41 5686.5,5402C 5746.01,5100.16 5926.34,4918.16 6227.5,4856C 6241.84,4849.83 6247.67,4839 6245,4823.5C 6242.58,4812.75 6236.08,4805.92 6225.5,4803C 6141.54,4805.01 6061.54,4788.34 5985.5,4753C 5944.86,4733.36 5906.19,4710.69 5869.5,4685C 5706.53,4571.01 5586.69,4422.18 5510,4238.5C 5498.83,4211.16 5488.5,4183.5 5479,4155.5C 5478.24,4144.93 5483.07,4140.77 5493.5,4143C 5498.83,4144.16 5503.83,4146.16 5508.5,4149C 5532.45,4168.61 5557.79,4186.28 5584.5,4202C 5646.55,4240.19 5711.55,4272.86 5779.5,4300C 5833.96,4318.15 5887.96,4337.48 5941.5,4358C 5986.55,4374.69 6028.89,4396.36 6068.5,4423C 6104.25,4448.75 6135.42,4479.25 6162,4514.5C 6218.32,4602.91 6289.82,4676.75 6376.5,4736C 6388.17,4743.67 6399.83,4751.33 6411.5,4759C 6423.81,4767.71 6437.47,4772.55 6452.5,4773.5C 6466.04,4773.13 6474.88,4766.46 6479,4753.5C 6480.87,4744.78 6478.87,4737.12 6473,4730.5C 6467.59,4725.55 6462.09,4720.72 6456.5,4716C 6365.44,4661.29 6288.61,4590.79 6226,4504.5C 6139.01,4380.83 6074.67,4245.83 6033,4099.5C 6000.53,3983.32 5981.03,3864.99 5974.5,3744.5C 5974.42,3735.94 5976.42,3727.94 5980.5,3720.5C 5982.03,3720.01 5983.36,3719.34 5984.5,3718.5 Z M 5586.5,3759.5 C 5621.02,3772.26 5653.02,3789.42 5682.5,3811C 5775.4,3875.64 5861.23,3949.14 5940,4031.5C 5949.68,4042.87 5957.35,4055.54 5963,4069.5C 5985.83,4158.34 6016,4244.5 6053.5,4328C 6051.67,4328.5 6050.5,4329.67 6050,4331.5C 6045.54,4329.19 6040.87,4328.86 6036,4330.5C 6031.72,4329.72 6027.56,4328.56 6023.5,4327C 5917.75,4286.53 5812.09,4245.86 5706.5,4205C 5668.6,4182.56 5644.6,4149.73 5634.5,4106.5C 5621.35,4056.68 5615.85,4006.01 5618,3954.5C 5616.66,3893.8 5604.33,3835.47 5581,3779.5C 5579.89,3772.01 5581.72,3765.34 5586.5,3759.5 Z M 7824.5,3767.5 C 7833.89,3769.23 7839.22,3774.89 7840.5,3784.5C 7835.18,3801.43 7831.68,3818.76 7830,3836.5C 7823.92,3883.65 7821.58,3930.98 7823,3978.5C 7825.14,4010.31 7826.64,4042.14 7827.5,4074C 7827.14,4157.59 7808.31,4236.75 7771,4311.5C 7761.14,4329.69 7745.97,4340.52 7725.5,4344C 7640.11,4351.32 7554.78,4359.16 7469.5,4367.5C 7469.46,4354.98 7471.96,4342.98 7477,4331.5C 7512.13,4262.43 7542.8,4191.43 7569,4118.5C 7581.73,4082.3 7594.07,4045.97 7606,4009.5C 7631.71,3946.58 7669.88,3892.42 7720.5,3847C 7753.36,3817.95 7788.03,3791.45 7824.5,3767.5 Z M 5508.5,4444.5 C 5535.1,4440.97 5556.6,4449.63 5573,4470.5C 5586.68,4491.87 5601.35,4512.54 5617,4532.5C 5638.69,4558.69 5660.19,4585.02 5681.5,4611.5C 5654.06,4623.16 5626.73,4635.32 5599.5,4648C 5572.67,4661.57 5547.01,4676.9 5522.5,4694C 5506.88,4703.16 5490.88,4703.83 5474.5,4696C 5415.48,4674.84 5362.81,4643.51 5316.5,4602C 5294.1,4581.6 5273.1,4559.94 5253.5,4537C 5274.25,4532.4 5294.58,4526.4 5314.5,4519C 5359.17,4499.67 5403.83,4480.33 5448.5,4461C 5468.15,4453.72 5488.15,4448.22 5508.5,4444.5 Z M 7914.5,4500.5 C 7926.48,4501.33 7937.81,4504.49 7948.5,4510C 7984.39,4526.92 8016.73,4548.92 8045.5,4576C 8122.38,4648.86 8180.55,4734.7 8220,4833.5C 8221.21,4841.04 8222.38,4848.54 8223.5,4856C 8139.2,4868.93 8054.7,4880.43 7970,4890.5C 7949.65,4890.66 7932.98,4882.99 7920,4867.5C 7884.46,4816.96 7841.29,4774.12 7790.5,4739C 7769.58,4724.96 7748.75,4710.79 7728,4696.5C 7723.46,4690.54 7721.13,4683.88 7721,4676.5C 7782.78,4625.89 7840.28,4570.56 7893.5,4510.5C 7899.48,4504.85 7906.48,4501.52 7914.5,4500.5 Z M 5713.5,4672.5 C 5744.44,4672.53 5771.77,4682.37 5795.5,4702C 5823.64,4727.81 5854.31,4750.15 5887.5,4769C 5908.06,4780.45 5929.06,4791.12 5950.5,4801C 5983.41,4815.63 6016.41,4829.96 6049.5,4844C 5961.64,4883.55 5883.98,4937.55 5816.5,5006C 5807.43,5012.2 5797.43,5016.2 5786.5,5018C 5725.28,5030.03 5664.28,5029.03 5603.5,5015C 5566.38,5005.07 5529.38,4994.74 5492.5,4984C 5455.19,4973.59 5417.19,4968.92 5378.5,4970C 5366.42,4974.28 5359.76,4969.95 5358.5,4957C 5358.66,4952.86 5359.82,4949.03 5362,4945.5C 5414.9,4863.93 5481.4,4795.43 5561.5,4740C 5595.4,4717.05 5631.4,4697.71 5669.5,4682C 5683.91,4676.95 5698.58,4673.79 5713.5,4672.5 Z M 7651.5,4736.5 C 7670.75,4736.86 7688.42,4742.36 7704.5,4753C 7768.61,4791.76 7824.11,4840.59 7871,4899.5C 7936.38,4986.61 7971.04,5084.94 7975,5194.5C 7975.35,5221.34 7975.85,5248.17 7976.5,5275C 7976.48,5284.19 7975.98,5293.36 7975,5302.5C 7974.39,5309.24 7972.89,5315.74 7970.5,5322C 7959.86,5324.37 7949.53,5323.37 7939.5,5319C 7890.29,5293.37 7838.95,5273.04 7785.5,5258C 7741.17,5245.67 7696.83,5233.33 7652.5,5221C 7595.47,5206.14 7542.8,5182.14 7494.5,5149C 7444.29,5112.13 7405.79,5065.63 7379,5009.5C 7365.27,4986.11 7349.61,4964.11 7332,4943.5C 7321.93,4931.68 7312.09,4919.68 7302.5,4907.5C 7304.8,4900.37 7309.13,4894.87 7315.5,4891C 7424.96,4859.93 7526.29,4812.26 7619.5,4748C 7629.62,4742.24 7640.29,4738.41 7651.5,4736.5 Z M 8008.5,4942.5 C 8025.32,4939.93 8038.48,4945.6 8048,4959.5C 8067.31,4995.44 8083.31,5032.77 8096,5071.5C 8109.32,5117 8113.65,5163.33 8109,5210.5C 8108.14,5217.66 8106.64,5224.66 8104.5,5231.5C 8087.32,5226.41 8071.32,5218.91 8056.5,5209C 8035.91,5191.61 8025.91,5169.27 8026.5,5142C 8027.75,5118.47 8025.25,5095.31 8019,5072.5C 8009.9,5039.54 7998.24,5007.54 7984,4976.5C 7976.83,4962.67 7980.33,4952.84 7994.5,4947C 7999.25,4945.36 8003.92,4943.86 8008.5,4942.5 Z M 5539.5,5064.5 C 5545.51,5064.33 5551.51,5064.5 5557.5,5065C 5584.89,5071.74 5612.56,5077.08 5640.5,5081C 5671.82,5084.47 5703.16,5087.8 5734.5,5091C 5735.79,5099.75 5734.63,5108.25 5731,5116.5C 5657.52,5233.37 5620.52,5361.04 5620,5499.5C 5616.19,5514.3 5607.69,5525.47 5594.5,5533C 5581.39,5538.28 5568.05,5542.95 5554.5,5547C 5546.18,5550.82 5538.18,5555.16 5530.5,5560C 5507.85,5576.99 5484.85,5593.49 5461.5,5609.5C 5460.81,5608.97 5460.31,5608.31 5460,5607.5C 5447.93,5527.57 5443.59,5447.24 5447,5366.5C 5451.47,5266.96 5475.8,5172.63 5520,5083.5C 5524.43,5074.9 5530.93,5068.56 5539.5,5064.5 Z M 7468.5,5205.5 C 7469.87,5205.34 7471.21,5205.51 7472.5,5206C 7534.93,5240.93 7600.59,5268.26 7669.5,5288C 7695.04,5295.13 7720.7,5301.8 7746.5,5308C 7759.75,5310.54 7771.25,5316.38 7781,5325.5C 7785.68,5334.57 7787.85,5344.24 7787.5,5354.5C 7787.96,5438.86 7759.12,5511.2 7701,5571.5C 7673.39,5599.46 7643.73,5624.79 7612,5647.5C 7597.83,5608.15 7581.16,5569.81 7562,5532.5C 7539.45,5490.59 7510.11,5453.92 7474,5422.5C 7467.44,5414.36 7463.94,5405.03 7463.5,5394.5C 7466.38,5366.91 7467.21,5339.24 7466,5311.5C 7463.5,5280.14 7460.66,5248.8 7457.5,5217.5C 7457.67,5215.5 7457.83,5213.5 7458,5211.5C 7461.64,5209.6 7465.14,5207.6 7468.5,5205.5 Z M 6236.5,5313.5 C 6244.13,5312.95 6249.29,5316.29 6252,5323.5C 6258.21,5339.47 6263.21,5355.8 6267,5372.5C 6272,5383.83 6277,5395.17 6282,5406.5C 6288.36,5420.61 6289.03,5434.94 6284,5449.5C 6265.79,5487.1 6240.96,5519.6 6209.5,5547C 6202.44,5552.39 6195.11,5557.39 6187.5,5562C 6152.54,5578.81 6118.54,5597.14 6085.5,5617C 6060.94,5632.88 6038.1,5651.05 6017,5671.5C 6004.78,5621.84 6000.11,5571.51 6003,5520.5C 6006.3,5476.26 6018.3,5434.6 6039,5395.5C 6047.39,5382.22 6059.22,5373.72 6074.5,5370C 6098.93,5368.58 6122.59,5363.58 6145.5,5355C 6176.17,5341.66 6206.51,5327.83 6236.5,5313.5 Z M 5962.5,5381.5 C 5963.75,5381.58 5964.58,5382.24 5965,5383.5C 5965.81,5394.21 5965.48,5404.87 5964,5415.5C 5960.61,5429.34 5956.61,5443.01 5952,5456.5C 5949.38,5470.58 5946.38,5484.58 5943,5498.5C 5940.98,5508.37 5936.48,5516.87 5929.5,5524C 5920.09,5528.73 5910.09,5530.9 5899.5,5530.5C 5861.52,5529.21 5823.85,5525.04 5786.5,5518C 5768.83,5517.06 5751.16,5516.06 5733.5,5515C 5724.04,5513.72 5715.04,5511.05 5706.5,5507C 5750.77,5452.82 5807.1,5417.15 5875.5,5400C 5904.35,5392.47 5933.35,5386.3 5962.5,5381.5 Z M 6400.5,5449.5 C 6402.14,5450.75 6403.3,5452.42 6404,5454.5C 6406.72,5463.51 6406.39,5472.51 6403,5481.5C 6401.79,5485.63 6400.29,5489.63 6398.5,5493.5C 6385.85,5478.06 6386.52,5463.39 6400.5,5449.5 Z M 6312.5,5517.5 C 6316.02,5517.93 6319.02,5519.43 6321.5,5522C 6328.14,5527.63 6334.47,5533.63 6340.5,5540C 6344,5542.58 6347.66,5544.92 6351.5,5547C 6362.18,5548.14 6372.85,5549.48 6383.5,5551C 6401.25,5555.34 6407.42,5566.18 6402,5583.5C 6380.72,5632.34 6357.72,5680.34 6333,5727.5C 6307.68,5773.84 6275.85,5815.34 6237.5,5852C 6230.54,5857.29 6223.87,5862.96 6217.5,5869C 6192.83,5886.33 6168.17,5903.67 6143.5,5921C 6119.94,5937.72 6098.44,5956.89 6079,5978.5C 6071.29,5988.76 6063.45,5998.92 6055.5,6009C 6049.41,6013.22 6043.07,6013.55 6036.5,6010C 6032.03,6006.53 6027.87,6002.7 6024,5998.5C 5978.06,5943.65 5943.73,5881.98 5921,5813.5C 5904.05,5758 5898.05,5701.33 5903,5643.5C 5905.76,5631.18 5908.43,5618.85 5911,5606.5C 5916.36,5598.38 5923.86,5595.54 5933.5,5598C 5939.86,5599.7 5943.36,5603.87 5944,5610.5C 5950.21,5670.02 5964.88,5727.35 5988,5782.5C 5998.67,5806.94 6015.83,5813.11 6039.5,5801C 6046.29,5794.31 6049.79,5786.14 6050,5776.5C 6045.99,5727.68 6064.82,5690.85 6106.5,5666C 6132.88,5653.53 6159.22,5640.87 6185.5,5628C 6235.74,5600.26 6278.08,5563.42 6312.5,5517.5 Z M 5728.5,5575.5 C 5756.62,5576.01 5784.62,5578.18 5812.5,5582C 5822.02,5582.96 5831.02,5585.63 5839.5,5590C 5845.91,5596.07 5848.91,5603.57 5848.5,5612.5C 5846.25,5633.49 5844.08,5654.49 5842,5675.5C 5840.1,5719.62 5845.1,5762.95 5857,5805.5C 5859.77,5819.45 5854.94,5829.62 5842.5,5836C 5826.97,5840.47 5811.31,5844.47 5795.5,5848C 5757.74,5857.88 5722.07,5872.72 5688.5,5892.5C 5676.01,5844.21 5669.34,5795.05 5668.5,5745C 5668.17,5694.68 5677.33,5646.18 5696,5599.5C 5702.19,5585.14 5713.02,5577.14 5728.5,5575.5 Z M 7517.5,5580.5 C 7527.86,5592.54 7535.69,5606.2 7541,5621.5C 7544.95,5632.65 7548.29,5643.98 7551,5655.5C 7555.78,5677.16 7560.44,5698.83 7565,5720.5C 7574.19,5736.51 7588.03,5743.01 7606.5,5740C 7612.82,5738.67 7618.49,5736.01 7623.5,5732C 7636.52,5718.99 7648.02,5704.83 7658,5689.5C 7676.22,5668.95 7696.05,5650.12 7717.5,5633C 7734.07,5620.47 7750.9,5608.3 7768,5596.5C 7760.96,5766.56 7701.46,5914.89 7589.5,6041.5C 7578.32,6012.13 7565.48,5983.47 7551,5955.5C 7532.33,5922.17 7513.67,5888.83 7495,5855.5C 7484.35,5836.21 7475.35,5816.21 7468,5795.5C 7453.42,5747.35 7455.75,5700.02 7475,5653.5C 7486.65,5627.5 7500.82,5603.17 7517.5,5580.5 Z M 7400.5,5777.5 C 7436.05,5846.49 7441.21,5917.82 7416,5991.5C 7388.58,6065.19 7346.08,6128.69 7288.5,6182C 7277.17,6192 7265.83,6202 7254.5,6212C 7216.31,6243.02 7177.98,6273.86 7139.5,6304.5C 7134.36,6288.24 7128.52,6272.24 7122,6256.5C 7106.89,6223.83 7092.56,6190.83 7079,6157.5C 7073.86,6143.41 7069.52,6129.07 7066,6114.5C 7063,6096.81 7060,6079.15 7057,6061.5C 7055.07,6057.24 7052.73,6053.24 7050,6049.5C 7039.43,6039.94 7030.76,6028.94 7024,6016.5C 7021.72,6008.59 7022.39,6000.93 7026,5993.5C 7030.83,5983.84 7036.16,5974.51 7042,5965.5C 7047.55,5970.27 7051.88,5975.93 7055,5982.5C 7059.15,5995.45 7063.15,6008.45 7067,6021.5C 7072.46,6035.62 7081.96,6045.79 7095.5,6052C 7107.41,6053.47 7116.91,6049.3 7124,6039.5C 7143.33,6007.15 7166.83,5977.99 7194.5,5952C 7232.02,5919.81 7270.68,5889.14 7310.5,5860C 7343.15,5835.53 7373.15,5808.03 7400.5,5777.5 Z"/></g>
<g><path style="opacity:0.987" fill="#000000" d="M 8378.5,2833.5 C 8389.7,2832.19 8397.2,2836.85 8401,2847.5C 8402.28,2851.1 8402.61,2854.76 8402,2858.5C 8399.59,2863.66 8396.92,2868.66 8394,2873.5C 8330,2958.17 8266,3042.83 8202,3127.5C 8195.66,3135.18 8188.16,3141.34 8179.5,3146C 8167.87,3148.1 8159.37,3143.93 8154,3133.5C 8153.33,3129.83 8153.33,3126.17 8154,3122.5C 8157.56,3114.38 8161.89,3106.71 8167,3099.5C 8228.09,3018.32 8289.42,2937.32 8351,2856.5C 8354.82,2851.71 8358.98,2847.21 8363.5,2843C 8368.23,2839.31 8373.23,2836.14 8378.5,2833.5 Z"/></g>
<g><path style="opacity:0.986" fill="#000000" d="M 4840.5,2970.5 C 4850.18,2969.45 4858.51,2972.28 4865.5,2979C 4942,3054.83 5018.5,3130.67 5095,3206.5C 5106.36,3218.08 5107.36,3230.41 5098,3243.5C 5092.31,3248.69 5085.81,3249.86 5078.5,3247C 5070.66,3242.25 5063,3237.25 5055.5,3232C 5051.07,3229.85 5046.74,3230.02 5042.5,3232.5C 5039.42,3248.09 5036.59,3263.76 5034,3279.5C 5023.05,3329.73 4995.89,3368.23 4952.5,3395C 4911.81,3415.84 4869.47,3419.84 4825.5,3407C 4774.84,3390.31 4733,3361.14 4700,3319.5C 4659.87,3262.39 4650.87,3200.72 4673,3134.5C 4694.21,3087.3 4729.71,3056.46 4779.5,3042C 4798.6,3037.15 4817.94,3033.65 4837.5,3031.5C 4839.37,3027.49 4839.54,3023.49 4838,3019.5C 4834.03,3012.19 4830.03,3004.85 4826,2997.5C 4822.7,2988.4 4824.87,2980.9 4832.5,2975C 4835.1,2973.2 4837.77,2971.7 4840.5,2970.5 Z M 4823.5,3069.5 C 4863.21,3068.68 4898.88,3080.18 4930.5,3104C 4962.92,3128.09 4985.75,3159.26 4999,3197.5C 5015.6,3255.7 5000.76,3304.2 4954.5,3343C 4913.9,3372.02 4870.24,3377.69 4823.5,3360C 4768.3,3337.13 4730.47,3297.63 4710,3241.5C 4694.73,3185.99 4708.23,3138.82 4750.5,3100C 4771.99,3082.9 4796.32,3072.73 4823.5,3069.5 Z"/></g>
<g><path style="opacity:0.986" fill="#000000" d="M 8527.5,3021.5 C 8595.82,3018.25 8650.98,3043.25 8693,3096.5C 8725.57,3144.03 8735.57,3196.03 8723,3252.5C 8704.93,3318.9 8664.76,3366.73 8602.5,3396C 8550.27,3417.58 8497.94,3417.92 8445.5,3397C 8384.5,3367.3 8348.66,3318.8 8338,3251.5C 8331.66,3165.69 8364.16,3099.19 8435.5,3052C 8463.89,3034.74 8494.56,3024.57 8527.5,3021.5 Z M 8532.5,3063.5 C 8591.98,3061.15 8637.14,3085.15 8668,3135.5C 8692.14,3184.63 8691.14,3233.29 8665,3281.5C 8636.02,3330.92 8593.19,3360.42 8536.5,3370C 8475.84,3373.92 8429.34,3350.42 8397,3299.5C 8369.17,3243.69 8372.83,3190.03 8408,3138.5C 8439.04,3096.23 8480.54,3071.23 8532.5,3063.5 Z"/></g>
<g><path style="opacity:0.988" fill="#000000" d="M 4388.5,3256.5 C 4405.28,3259.72 4411.45,3269.39 4407,3285.5C 4398.75,3301 4389.75,3316 4380,3330.5C 4346.91,3381 4313.58,3431.34 4280,3481.5C 4276.67,3488.5 4276.67,3495.5 4280,3502.5C 4283.83,3507.67 4288.33,3512.17 4293.5,3516C 4330.69,3538.76 4367.02,3562.76 4402.5,3588C 4419,3597.61 4432.5,3594.45 4443,3578.5C 4476.1,3526.07 4510.77,3474.74 4547,3424.5C 4556.42,3412.77 4567.09,3411.44 4579,3420.5C 4584.64,3428.9 4584.97,3437.56 4580,3446.5C 4576.07,3454.75 4571.74,3462.75 4567,3470.5C 4537.61,3514.23 4508.61,3558.23 4480,3602.5C 4478,3606.5 4476,3610.5 4474,3614.5C 4470.49,3623.92 4472.66,3631.75 4480.5,3638C 4525.29,3670.57 4571.63,3700.91 4619.5,3729C 4626.03,3732.52 4632.37,3732.19 4638.5,3728C 4644.08,3723.09 4648.91,3717.59 4653,3711.5C 4692.33,3652.83 4731.67,3594.17 4771,3535.5C 4785.67,3519.8 4798.67,3521.13 4810,3539.5C 4810.75,3544.57 4810.42,3549.57 4809,3554.5C 4806.92,3558.99 4804.59,3563.33 4802,3567.5C 4756,3636.83 4710,3706.17 4664,3775.5C 4649.68,3794.82 4632.51,3797.65 4612.5,3784C 4486.84,3699.84 4360.84,3616.17 4234.5,3533C 4216.59,3519.25 4213.42,3502.75 4225,3483.5C 4271.67,3413.5 4318.33,3343.5 4365,3273.5C 4371.06,3265.25 4378.9,3259.59 4388.5,3256.5 Z"/></g>
<g><path style="opacity:0.987" fill="#000000" d="M 8889.5,3367.5 C 8902.11,3368.44 8909.78,3375.11 8912.5,3387.5C 8910.12,3398.07 8904.62,3406.73 8896,3413.5C 8894,3417.83 8894,3422.17 8896,3426.5C 8916.23,3434.02 8936.06,3442.52 8955.5,3452C 8982.62,3467.45 9004.12,3488.62 9020,3515.5C 9043.94,3566.99 9037.94,3614.65 9002,3658.5C 8993.8,3667.03 8985.3,3675.2 8976.5,3683C 8909.35,3731.41 8840.35,3777.08 8769.5,3820C 8762.52,3821.64 8756.35,3820.14 8751,3815.5C 8744.31,3808.8 8741.65,3800.8 8743,3791.5C 8745.08,3787.42 8747.91,3783.92 8751.5,3781C 8811.34,3741.25 8871.01,3701.25 8930.5,3661C 9005.01,3606.91 9008.67,3548.24 8941.5,3485C 8904.59,3456.92 8864.25,3450.92 8820.5,3467C 8811.77,3470.2 8803.44,3474.2 8795.5,3479C 8748.49,3509.5 8701.82,3540.5 8655.5,3572C 8645.17,3578.33 8634.83,3584.67 8624.5,3591C 8604.25,3597.08 8593.75,3589.58 8593,3568.5C 8594.14,3564.89 8595.81,3561.55 8598,3558.5C 8605.21,3552.28 8612.71,3546.45 8620.5,3541C 8701.83,3487 8783.17,3433 8864.5,3379C 8872.44,3374.03 8880.77,3370.19 8889.5,3367.5 Z"/></g>
<g><path style="opacity:0.989" fill="#000000" d="M 6395.5,6397.5 C 6406.73,6395.04 6415.23,6398.7 6421,6408.5C 6450.86,6476.42 6480.53,6544.42 6510,6612.5C 6543.36,6585.16 6565.69,6550.5 6577,6508.5C 6585.53,6481.71 6591.53,6454.38 6595,6426.5C 6600.18,6410.65 6611.01,6404.82 6627.5,6409C 6644.09,6412.6 6652.09,6422.93 6651.5,6440C 6648.16,6484.19 6637.99,6526.69 6621,6567.5C 6607.05,6596.42 6589.38,6622.75 6568,6646.5C 6558.48,6659.04 6550.15,6672.37 6543,6686.5C 6539.64,6695.96 6535.97,6705.29 6532,6714.5C 6522.91,6726.41 6511.07,6730.24 6496.5,6726C 6489.77,6723.23 6484.6,6718.73 6481,6712.5C 6472.14,6686.93 6463.48,6661.26 6455,6635.5C 6432.34,6574.2 6407.34,6513.86 6380,6454.5C 6375.36,6441.44 6374.36,6428.11 6377,6414.5C 6380.83,6406.16 6387,6400.5 6395.5,6397.5 Z"/></g>
<g><path style="opacity:0.99" fill="#000000" d="M 7010.5,6568.5 C 7026.21,6567.93 7038.04,6574.27 7046,6587.5C 7048.03,6595.25 7047.7,6602.92 7045,6610.5C 7031.77,6645.96 7015.1,6679.62 6995,6711.5C 6966.65,6753.54 6937.32,6794.87 6907,6835.5C 6889.58,6859.67 6875.24,6885.67 6864,6913.5C 6858.2,6931.04 6852.86,6948.71 6848,6966.5C 6839.24,6979.98 6827.07,6984.14 6811.5,6979C 6803.73,6976.23 6798.23,6971.06 6795,6963.5C 6787.93,6937.22 6779.93,6911.22 6771,6885.5C 6756.2,6846.09 6741.2,6806.76 6726,6767.5C 6715.31,6739.43 6706.64,6710.76 6700,6681.5C 6697.31,6657.51 6698.97,6633.84 6705,6610.5C 6714.33,6594.96 6727.16,6591.46 6743.5,6600C 6750.1,6605.61 6753.1,6612.78 6752.5,6621.5C 6750.4,6648.03 6753.23,6674.03 6761,6699.5C 6765.55,6714.47 6770.88,6729.14 6777,6743.5C 6788.55,6768.6 6799.55,6793.93 6810,6819.5C 6815.16,6829.17 6820.83,6838.5 6827,6847.5C 6855.44,6803.73 6885.44,6761.06 6917,6719.5C 6947.72,6677.09 6973.05,6631.42 6993,6582.5C 6997.3,6575.68 7003.13,6571.02 7010.5,6568.5 Z"/></g>
<g><path style="opacity:0.989" fill="#000000" d="M 6535.5,7509.5 C 6560.84,7507.67 6571.34,7519.34 6567,7544.5C 6556.38,7757.11 6572.38,7967.77 6615,8176.5C 6640.37,8298.95 6676.04,8418.29 6722,8534.5C 6792.97,8708.4 6867.64,8880.73 6946,9051.5C 6993.19,9153.21 7043.52,9253.21 7097,9351.5C 7143.52,9432 7195.52,9508.66 7253,9581.5C 7344.4,9700.48 7441.74,9814.81 7545,9924.5C 7639.04,10023.2 7738.54,10115.4 7843.5,10201C 7908.57,10259.7 7972.74,10319.6 8036,10380.5C 8041.98,10387.9 8042.98,10395.9 8039,10404.5C 8033.05,10411.5 8026.22,10417.3 8018.5,10422C 8014.5,10422.7 8010.5,10422.7 8006.5,10422C 8001.56,10419.4 7996.9,10416.4 7992.5,10413C 7954.16,10375.3 7915.16,10338.3 7875.5,10302C 7812.13,10246.3 7748.46,10191 7684.5,10136C 7664.17,10117.7 7643.83,10099.3 7623.5,10081C 7579.29,10040 7536.95,9997.12 7496.5,9952.5C 7490.34,9948.25 7484,9944.25 7477.5,9940.5C 7445.74,9989.89 7420.58,10042.6 7402,10098.5C 7378.96,10170 7376.96,10242 7396,10314.5C 7413.82,10372.6 7445.66,10421.5 7491.5,10461C 7540.13,10503.3 7588.46,10546 7636.5,10589C 7645,10597.5 7653.5,10606 7662,10614.5C 7668.45,10622.6 7674.28,10631.1 7679.5,10640C 7671.33,10649.1 7661.33,10655.1 7649.5,10658C 7639.3,10659.1 7629.97,10656.8 7621.5,10651C 7566.43,10600.6 7510.76,10550.9 7454.5,10502C 7352.59,10406.3 7313.76,10289.1 7338,10150.5C 7345.59,10100.8 7360.59,10053.4 7383,10008.5C 7398.93,9976.92 7415.26,9945.58 7432,9914.5C 7438.59,9899.69 7436.59,9886.02 7426,9873.5C 7301.28,9739.24 7188.61,9595.91 7088,9443.5C 7078.03,9427.37 7067.86,9411.37 7057.5,9395.5C 7048.06,9397.11 7041.89,9402.44 7039,9411.5C 7038.87,9509.49 7019.54,9603.49 6981,9693.5C 6969.42,9720.65 6956.76,9747.32 6943,9773.5C 6918.19,9816.12 6895.19,9859.79 6874,9904.5C 6849.42,9958.9 6830.42,10015.2 6817,10073.5C 6790.8,10194.7 6809.47,10308.3 6873,10414.5C 6903.2,10462.1 6938.7,10505.6 6979.5,10545C 7017.33,10580.8 7055.17,10616.7 7093,10652.5C 7131.84,10692.3 7166.51,10735.3 7197,10781.5C 7201.44,10787.5 7203.44,10794.1 7203,10801.5C 7198.11,10809.7 7190.95,10814.9 7181.5,10817C 7172.13,10818.7 7163.46,10817.1 7155.5,10812C 7152.33,10808.8 7149.17,10805.7 7146,10802.5C 7108.4,10748.9 7065.56,10699.4 7017.5,10654C 6978.06,10617.9 6939.23,10581.1 6901,10543.5C 6797.6,10430.7 6748.26,10297.3 6753,10143.5C 6756.3,10093.7 6765.64,10045 6781,9997.5C 6808.9,9908.38 6847.57,9824.38 6897,9745.5C 6961.45,9624.35 6993.29,9495.01 6992.5,9357.5C 6991.99,9332.47 6990.82,9307.47 6989,9282.5C 6987.86,9270.8 6985.19,9259.47 6981,9248.5C 6912.95,9112.42 6849.29,8974.42 6790,8834.5C 6785.84,8826.67 6779.68,8821 6771.5,8817.5C 6768.51,8822.16 6766.01,8827.16 6764,8832.5C 6723.6,8940.63 6675.6,9045.3 6620,9146.5C 6594.73,9190.76 6569.07,9234.76 6543,9278.5C 6460.57,9423.45 6399.9,9577.11 6361,9739.5C 6336.76,9843.79 6323.59,9949.46 6321.5,10056.5C 6320.58,10151.6 6337.74,10243.3 6373,10331.5C 6396.94,10386.4 6420.61,10441.4 6444,10496.5C 6460.12,10530.7 6476.79,10564.7 6494,10598.5C 6518.33,10651.8 6539.33,10706.5 6557,10762.5C 6566.99,10795.5 6576.83,10828.5 6586.5,10861.5C 6585.08,10870.1 6580.08,10875.3 6571.5,10877C 6556.43,10879.4 6545.27,10873.9 6538,10860.5C 6530.61,10842.1 6522.94,10823.7 6515,10805.5C 6475.37,10684.6 6424.04,10568.9 6361,10458.5C 6352.22,10483.4 6342.89,10508.1 6333,10532.5C 6290.33,10621.6 6219.83,10659.4 6121.5,10646C 6104.64,10642.8 6087.97,10638.8 6071.5,10634C 6032.77,10622.5 5994.11,10610.9 5955.5,10599C 5910.5,10586.9 5867.5,10591.9 5826.5,10614C 5811.69,10624.1 5796.36,10633.5 5780.5,10642C 5759.1,10649 5740.77,10644.3 5725.5,10628C 5773.29,10569.3 5835.29,10539.8 5911.5,10539.5C 5943.93,10539.9 5975.59,10545.1 6006.5,10555C 6041.7,10566.7 6077.03,10578.1 6112.5,10589C 6144.06,10597 6175.39,10596.3 6206.5,10587C 6239.21,10574.1 6264.05,10552.2 6281,10521.5C 6296.24,10490.6 6305.57,10457.9 6309,10423.5C 6312.71,10389.4 6311.71,10355.4 6306,10321.5C 6299.32,10290.1 6292.32,10258.8 6285,10227.5C 6269.03,10139.4 6265.03,10050.7 6273,9961.5C 6281.08,9855.99 6299.42,9752.33 6328,9650.5C 6337.45,9619.34 6347.28,9588.67 6357.5,9558.5C 6342.74,9567.08 6329.57,9577.75 6318,9590.5C 6171.22,9775.62 6007.39,9944.78 5826.5,10098C 5722.37,10185.8 5612.37,10265.5 5496.5,10337C 5456.77,10361.2 5416.1,10383.9 5374.5,10405C 5349.17,10412.3 5330.17,10404.4 5317.5,10381.5C 5320.62,10375.9 5324.62,10371.1 5329.5,10367C 5466.42,10297.3 5594.76,10215 5714.5,10120C 5817.44,10037.8 5915.61,9949.59 6009,9855.5C 6131.33,9732.89 6244.33,9602.89 6348,9465.5C 6462.84,9312.96 6561.84,9149.96 6645,8976.5C 6676.83,8907.17 6704.49,8836.17 6728,8763.5C 6735.05,8735.75 6733.72,8708.42 6724,8681.5C 6669.36,8557.93 6624.03,8430.93 6588,8300.5C 6546.99,8142.08 6523.32,7981.08 6517,7817.5C 6513.19,7723.86 6512.52,7630.19 6515,7536.5C 6516.12,7522.85 6522.95,7513.85 6535.5,7509.5 Z"/></g>
<g><path style="opacity:0.988" fill="#000000" d="M 6905.5,7577.5 C 6924.76,7576.26 6935.26,7585.26 6937,7604.5C 6942.74,7805.65 6924.74,8004.65 6883,8201.5C 6876.15,8233.88 6869.15,8266.22 6862,8298.5C 6854.68,8311.65 6843.85,8315.49 6829.5,8310C 6822.57,8307.41 6818.07,8302.57 6816,8295.5C 6815.33,8289.83 6815.33,8284.17 6816,8278.5C 6866.61,8053.97 6890.95,7826.64 6889,7596.5C 6891.25,7587.1 6896.75,7580.77 6905.5,7577.5 Z"/></g>
<g><path style="opacity:0.991" fill="#000000" d="M 5826.5,10926.5 C 5843.49,10925.3 5852.65,10933.3 5854,10950.5C 5855.29,11016.8 5855.95,11083.2 5856,11149.5C 5878.43,11133.1 5901.93,11118.3 5926.5,11105C 5965.17,11089 6004.17,11088.3 6043.5,11103C 6080.08,11119.3 6102.25,11147.1 6110,11186.5C 6112.74,11207.7 6114.41,11229.1 6115,11250.5C 6116.28,11317.2 6116.28,11383.8 6115,11450.5C 6111.38,11469.8 6100.55,11475.3 6082.5,11467C 6078.57,11463.3 6076.07,11458.8 6075,11453.5C 6073.94,11379.5 6072.94,11305.5 6072,11231.5C 6066.52,11159 6027.68,11127.2 5955.5,11136C 5896.58,11146.3 5863.74,11181.1 5857,11240.5C 5855.23,11307.2 5855.07,11373.8 5856.5,11440.5C 5855.85,11465.3 5843.52,11474.1 5819.5,11467C 5813.74,11463.9 5810.24,11459.1 5809,11452.5C 5809.3,11286.8 5809.63,11121.2 5810,10955.5C 5809.54,10946.1 5812.38,10938 5818.5,10931C 5821.1,10929.2 5823.77,10927.7 5826.5,10926.5 Z"/></g>
<g><path style="opacity:0.987" fill="#000000" d="M 8084.5,10946.5 C 8113.41,10944.8 8141.41,10949 8168.5,10959C 8192.28,10969.5 8211.78,10985.3 8227,11006.5C 8237.18,11024.8 8232.35,11037.1 8212.5,11043.5C 8208.19,11042.8 8204.19,11041.3 8200.5,11039C 8189.07,11026.6 8176.73,11015.2 8163.5,11005C 8138.39,10990.6 8111.39,10985 8082.5,10988C 8058.53,10989.1 8037.7,10997.6 8020,11013.5C 8004.02,11032.7 7998.02,11054.7 8002,11079.5C 8005.88,11102.6 8014.22,11123.9 8027,11143.5C 8048,11175.5 8071.67,11205.5 8098,11233.5C 8126.36,11263.9 8156.53,11292 8188.5,11318C 8199.82,11326.7 8211.48,11334.8 8223.5,11342.5C 8229.65,11334.9 8234.82,11326.5 8239,11317.5C 8246.85,11295.1 8254.85,11272.8 8263,11250.5C 8269.06,11243.8 8276.56,11241.7 8285.5,11244C 8295.55,11248.8 8299.55,11256.8 8297.5,11268C 8297.16,11287 8292.99,11305.2 8285,11322.5C 8279.4,11332.7 8274.06,11343 8269,11353.5C 8262.09,11374.1 8267.59,11390.6 8285.5,11403C 8303.09,11413.9 8318.92,11427.1 8333,11442.5C 8338.1,11458.3 8332.44,11467.6 8316,11470.5C 8308.94,11469.9 8302.44,11467.8 8296.5,11464C 8284.16,11448 8268.5,11436.7 8249.5,11430C 8231.41,11426.3 8214.08,11428.6 8197.5,11437C 8182.16,11445 8167.5,11454 8153.5,11464C 8112.38,11485.6 8069.05,11491.6 8023.5,11482C 7978.75,11473.9 7940.91,11453.4 7910,11420.5C 7879.83,11381.3 7867.5,11337 7873,11287.5C 7878.79,11249.1 7896.62,11217.6 7926.5,11193C 7936.22,11185.6 7946.22,11178.6 7956.5,11172C 7968.52,11162.6 7973.02,11150.4 7970,11135.5C 7966,11122.8 7962,11110.2 7958,11097.5C 7948.94,11063.1 7953.61,11030.7 7972,11000.5C 7994.54,10971.1 8024.37,10954 8061.5,10949C 8069.32,10948.2 8076.99,10947.4 8084.5,10946.5 Z M 7990.5,11199.5 C 8001.5,11198 8011.17,11200.8 8019.5,11208C 8070.77,11269.3 8126.77,11325.9 8187.5,11378C 8190.6,11380.4 8192.76,11383.2 8194,11386.5C 8168.7,11409.6 8139.54,11426.1 8106.5,11436C 8065.94,11445.8 8026.61,11442.1 7988.5,11425C 7948.67,11405.1 7925.84,11373 7920,11328.5C 7911.9,11276.2 7929.73,11235.7 7973.5,11207C 7979.03,11203.9 7984.7,11201.4 7990.5,11199.5 Z"/></g>
<g><path style="opacity:0.988" fill="#000000" d="M 5424.5,10951.5 C 5477.52,10951.1 5530.52,10951.6 5583.5,10953C 5623.92,10956.3 5657.76,10972.8 5685,11002.5C 5709.81,11036.7 5720.15,11075.1 5716,11117.5C 5708.03,11196.5 5664.87,11242 5586.5,11254C 5561.7,11255.6 5536.86,11256.4 5512,11256.5C 5489.5,11255.9 5467,11255.7 5444.5,11256C 5431.58,11257.6 5423.74,11264.8 5421,11277.5C 5420.13,11282.5 5419.63,11287.5 5419.5,11292.5C 5420.67,11344.2 5420.5,11395.8 5419,11447.5C 5416.52,11465.7 5406.35,11472.8 5388.5,11469C 5382.65,11465.5 5379.15,11460.3 5378,11453.5C 5376.94,11445.5 5376.28,11437.5 5376,11429.5C 5375.04,11281.2 5375.37,11132.8 5377,10984.5C 5376.97,10973.9 5380.81,10965.1 5388.5,10958C 5392.23,10955.9 5396.23,10954.5 5400.5,10954C 5408.64,10953.1 5416.64,10952.2 5424.5,10951.5 Z M 5490.5,10996.5 C 5514.5,10996.3 5538.5,10996.5 5562.5,10997C 5588.77,10997.2 5612.77,11004.6 5634.5,11019C 5660.51,11040.2 5673.17,11067.7 5672.5,11101.5C 5670.13,11166.4 5636.8,11203.2 5572.5,11212C 5564.5,11212.5 5556.5,11213 5548.5,11213.5C 5514.84,11212.7 5481.17,11212.2 5447.5,11212C 5427.51,11210.6 5418.34,11199.8 5420,11179.5C 5419.12,11135.5 5419.45,11091.5 5421,11047.5C 5421.39,11034.9 5424.72,11023.3 5431,11012.5C 5439.1,11004.4 5448.93,10999.9 5460.5,10999C 5470.65,10998.1 5480.65,10997.3 5490.5,10996.5 Z"/></g>
<g><path style="opacity:0.983" fill="#000000" d="M 7016.5,10976.5 C 7038.61,10972.9 7051.61,10982 7055.5,11004C 7053.9,11023.9 7043.07,11033.8 7023,11033.5C 7004.18,11032.7 6995.02,11022.9 6995.5,11004C 6995.17,10989.2 7002.17,10980 7016.5,10976.5 Z"/></g>
<g><path style="opacity:0.986" fill="#000000" d="M 7316.5,11084.5 C 7385.48,11082.1 7440.32,11108.4 7481,11163.5C 7512.94,11213.8 7523.6,11268.5 7513,11327.5C 7501.24,11391.6 7466.41,11438.1 7408.5,11467C 7350.94,11490.2 7294.28,11488.2 7238.5,11461C 7185.9,11430.4 7154.06,11384.9 7143,11324.5C 7132.04,11257.3 7148.04,11197.7 7191,11145.5C 7224.94,11108.9 7266.77,11088.6 7316.5,11084.5 Z M 7316.5,11126.5 C 7383.6,11124.5 7431.1,11153.8 7459,11214.5C 7477.27,11262.3 7476.94,11310 7458,11357.5C 7432.04,11411.4 7389.04,11439.8 7329,11442.5C 7263.13,11438 7218.13,11405 7194,11343.5C 7173.92,11281.6 7183.92,11225.3 7224,11174.5C 7248.87,11147 7279.71,11131 7316.5,11126.5 Z"/></g>
<g><path style="opacity:0.985" fill="#000000" d="M 6760.5,11085.5 C 6795.7,11084.2 6828.7,11092.1 6859.5,11109C 6872.73,11117.4 6883.9,11127.9 6893,11140.5C 6898.45,11152.4 6895.29,11161.3 6883.5,11167C 6879.5,11167.7 6875.5,11167.7 6871.5,11167C 6866.55,11165.2 6861.89,11162.9 6857.5,11160C 6842.11,11148.3 6825.44,11138.6 6807.5,11131C 6769.79,11118.3 6734.79,11123.7 6702.5,11147C 6686.96,11163.3 6681.8,11182.5 6687,11204.5C 6691.42,11218.9 6700.25,11229.8 6713.5,11237C 6718.17,11239.3 6722.83,11241.7 6727.5,11244C 6758.24,11255.1 6789.24,11265.4 6820.5,11275C 6847.55,11283.9 6870.72,11298.8 6890,11319.5C 6907.43,11343.7 6912.43,11370.3 6905,11399.5C 6895.53,11433 6874.7,11456.5 6842.5,11470C 6796.44,11487.2 6750.11,11487.9 6703.5,11472C 6671.53,11459.4 6645.36,11439.2 6625,11411.5C 6622.72,11397.7 6628.22,11388.2 6641.5,11383C 6647.86,11382.2 6653.52,11383.9 6658.5,11388C 6675.72,11407.6 6696.05,11422.9 6719.5,11434C 6754.73,11447.6 6790.07,11448 6825.5,11435C 6854.57,11422.2 6867.07,11400.1 6863,11368.5C 6859.28,11351.1 6849.78,11338 6834.5,11329C 6828.95,11326.1 6823.29,11323.4 6817.5,11321C 6787.97,11311.9 6758.63,11302.3 6729.5,11292C 6702.82,11284.3 6679.99,11270.5 6661,11250.5C 6642.32,11224.5 6636.99,11195.8 6645,11164.5C 6653.92,11133.9 6673.09,11112.4 6702.5,11100C 6721.09,11091.7 6740.43,11086.9 6760.5,11085.5 Z"/></g>
<g><path style="opacity:0.986" fill="#000000" d="M 6252.5,11091.5 C 6262.48,11091.9 6268.64,11096.9 6271,11106.5C 6271.83,11111.1 6272.5,11115.8 6273,11120.5C 6273.43,11194.2 6274.1,11267.8 6275,11341.5C 6275.58,11368.9 6283.92,11393.6 6300,11415.5C 6319.4,11434.4 6342.73,11443 6370,11441.5C 6420.53,11440.9 6457.19,11418.3 6480,11373.5C 6487.54,11355.6 6491.2,11336.9 6491,11317.5C 6491.34,11296.8 6491.84,11276.2 6492.5,11255.5C 6491.41,11213.5 6491.24,11171.5 6492,11129.5C 6492.29,11122.8 6492.96,11116.1 6494,11109.5C 6498.36,11095.1 6507.86,11089.6 6522.5,11093C 6531.47,11097.8 6536.3,11105.3 6537,11115.5C 6538.8,11225.5 6538.8,11335.5 6537,11445.5C 6535.74,11493.6 6519.74,11536 6489,11572.5C 6442.64,11619.3 6386.81,11636.8 6321.5,11625C 6300.45,11621.4 6280.45,11614.7 6261.5,11605C 6252.41,11600.9 6245.57,11594.4 6241,11585.5C 6239.34,11570.5 6246.01,11562.1 6261,11560.5C 6265.2,11561.2 6269.37,11562 6273.5,11563C 6291.11,11570.1 6309.11,11576.1 6327.5,11581C 6362.38,11589.5 6395.71,11585.5 6427.5,11569C 6461.74,11545.7 6480.57,11513.2 6484,11471.5C 6484.5,11460.8 6484.67,11450.2 6484.5,11439.5C 6478.18,11439.7 6472.18,11441.2 6466.5,11444C 6455.89,11450.9 6445.56,11458.3 6435.5,11466C 6394.51,11487.4 6352.17,11490.7 6308.5,11476C 6269.21,11457.6 6245.04,11427.1 6236,11384.5C 6232.28,11364.3 6230.61,11344 6231,11323.5C 6230.17,11254.5 6230.5,11185.5 6232,11116.5C 6231.74,11107.9 6234.9,11101.1 6241.5,11096C 6245.05,11093.9 6248.72,11092.4 6252.5,11091.5 Z"/></g>
<g><path style="opacity:0.986" fill="#000000" d="M 7016.5,11092.5 C 7034.09,11090.9 7043.59,11098.9 7045,11116.5C 7045.67,11225.2 7045.67,11333.8 7045,11442.5C 7045.63,11462.5 7036.13,11471.4 7016.5,11469C 7008.6,11466.4 7004.1,11460.9 7003,11452.5C 7002.33,11338.5 7002.33,11224.5 7003,11110.5C 7003.97,11101.7 7008.47,11095.7 7016.5,11092.5 Z"/></g>
<g><path style="opacity:0.99" fill="#000000" d="M 7650.5,11219.5 C 7694.5,11220.2 7738.5,11220.7 7782.5,11221C 7795.88,11224.3 7802.05,11232.8 7801,11246.5C 7798.63,11256.2 7792.46,11261.7 7782.5,11263C 7727.48,11264 7672.48,11263.6 7617.5,11262C 7606.89,11257.3 7602.72,11249.1 7605,11237.5C 7607.13,11228.7 7612.63,11223.2 7621.5,11221C 7631.34,11220.8 7641.01,11220.3 7650.5,11219.5 Z"/></g>
<g><path style="opacity:0.982" fill="#000000" d="M 6931.5,11574.5 C 6945.08,11572.4 6953.91,11577.7 6958,11590.5C 6959.8,11605.4 6960.8,11620.4 6961,11635.5C 6961.33,11685.8 6961.67,11736.2 6962,11786.5C 6973.1,11783.9 6983.6,11779.7 6993.5,11774C 7027.72,11745.8 7067.06,11733.5 7111.5,11737C 7159.24,11744.5 7192.08,11770.6 7210,11815.5C 7217.75,11840.6 7221.41,11866.2 7221,11892.5C 7222.31,11959.2 7222.31,12025.8 7221,12092.5C 7220.19,12115.7 7209.03,12123.2 7187.5,12115C 7182.88,12110.1 7180.38,12104.3 7180,12097.5C 7179.34,12026.5 7178.68,11955.5 7178,11884.5C 7172.39,11800.2 7128.22,11766.7 7045.5,11784C 6997.64,11799.9 6970.14,11832.7 6963,11882.5C 6961.75,11941.5 6961.08,12000.5 6961,12059.5C 6960.66,12073.9 6959.32,12088.3 6957,12102.5C 6953.4,12116.4 6944.57,12121.6 6930.5,12118C 6923.9,12115.3 6919.74,12110.5 6918,12103.5C 6917.09,12099.2 6916.42,12094.9 6916,12090.5C 6914.05,11927.5 6914.05,11764.5 6916,11601.5C 6915.08,11588.6 6920.24,11579.6 6931.5,11574.5 Z"/></g>
<g><path style="opacity:0.983" fill="#000000" d="M 4856.5,11602.5 C 4861.84,11602.3 4867.18,11602.5 4872.5,11603C 4883.06,11605.3 4889.23,11611.8 4891,11622.5C 4891.67,11629.2 4891.67,11635.8 4891,11642.5C 4886.73,11658.7 4876.23,11666.2 4859.5,11665C 4842.42,11661.1 4834.09,11650.2 4834.5,11632.5C 4834.11,11616.5 4841.45,11606.5 4856.5,11602.5 Z"/></g>
<g><path style="opacity:0.982" fill="#000000" d="M 4984.5,11602.5 C 5012.15,11600.1 5024.32,11612.7 5021,11640.5C 5016.68,11658.6 5005.18,11666.8 4986.5,11665C 4974.03,11661.5 4966.86,11653.4 4965,11640.5C 4961.89,11627.4 4965.06,11616.2 4974.5,11607C 4977.82,11605.2 4981.15,11603.7 4984.5,11602.5 Z"/></g>
<g><path style="opacity:0.985" fill="#000000" d="M 4282.5,11603.5 C 4300.9,11603.7 4310.06,11613.1 4310,11631.5C 4310.33,11697.8 4310.67,11764.2 4311,11830.5C 4311.93,11849.8 4312.93,11869.2 4314,11888.5C 4408.53,11799 4503.36,11709.8 4598.5,11621C 4605.83,11615.7 4613.17,11610.3 4620.5,11605C 4629.91,11603 4638.08,11605.5 4645,11612.5C 4647.4,11617.2 4648.07,11622.2 4647,11627.5C 4642.72,11634.1 4638.05,11640.4 4633,11646.5C 4572.26,11705.1 4511.09,11763.1 4449.5,11820.5C 4515.71,11907.2 4582.88,11993.2 4651,12078.5C 4656.09,12085 4659.26,12092.3 4660.5,12100.5C 4657.29,12116.2 4647.63,12123.4 4631.5,12122C 4625.19,12119.4 4619.69,12115.5 4615,12110.5C 4564.09,12047 4513.43,11983.3 4463,11919.5C 4446.97,11900.1 4430.97,11880.7 4415,11861.5C 4403.76,11866.9 4393.26,11873.4 4383.5,11881C 4361.64,11901.2 4340.14,11921.7 4319,11942.5C 4314,11951.5 4311.33,11961.2 4311,11971.5C 4310.66,12008.8 4309.99,12046.2 4309,12083.5C 4309.8,12093.5 4307.8,12102.8 4303,12111.5C 4291.63,12122.2 4280.29,12122.2 4269,12111.5C 4266.34,12107.2 4264.67,12102.5 4264,12097.5C 4263.67,12090.8 4263.33,12084.2 4263,12077.5C 4262.33,11932.2 4262.33,11786.8 4263,11641.5C 4263.33,11635.8 4263.67,11630.2 4264,11624.5C 4264.68,11612.4 4270.85,11605.4 4282.5,11603.5 Z"/></g>
<g><path style="opacity:0.979" fill="#000000" d="M 8959.5,11621.5 C 8972.14,11619.5 8983.31,11622.5 8993,11630.5C 9002.19,11643.6 9002.52,11657 8994,11670.5C 8983.46,11681.3 8970.96,11684.2 8956.5,11679C 8945.09,11674.2 8939.43,11665.5 8939.5,11653C 8939.31,11637.8 8945.97,11627.3 8959.5,11621.5 Z"/></g>
<g><path style="opacity:0.985" fill="#000000" d="M 6703.5,11641.5 C 6711.45,11640.8 6718.28,11643.1 6724,11648.5C 6724.67,11649.8 6725.33,11651.2 6726,11652.5C 6724.64,11670.3 6725.64,11688 6729,11705.5C 6734.72,11728.9 6749.55,11742.1 6773.5,11745C 6785.51,11745.4 6797.51,11745.4 6809.5,11745C 6818.99,11750.4 6822.49,11758.6 6820,11769.5C 6815.92,11776 6810.09,11780.1 6802.5,11782C 6783.07,11784.6 6764.07,11788.9 6745.5,11795C 6737.15,11799.7 6732.31,11806.9 6731,11816.5C 6729.36,11889.1 6729.03,11961.8 6730,12034.5C 6730.21,12046 6733.21,12056.7 6739,12066.5C 6745.49,12074.8 6753.99,12079.7 6764.5,12081C 6774.12,12081.3 6783.78,12082 6793.5,12083C 6796.94,12084.1 6799.44,12086.3 6801,12089.5C 6803.4,12109.8 6794.23,12120.3 6773.5,12121C 6757.56,12123.8 6741.9,12122.8 6726.5,12118C 6704.58,12107.4 6692.08,12089.9 6689,12065.5C 6687.91,12056.9 6687.25,12048.2 6687,12039.5C 6686.51,12012.7 6686.01,11985.8 6685.5,11959C 6686.51,11912.2 6686.68,11865.3 6686,11818.5C 6685.69,11809 6683.36,11800 6679,11791.5C 6675.9,11788.1 6672.06,11785.9 6667.5,11785C 6655.72,11785.1 6644.06,11784.1 6632.5,11782C 6616.29,11778.7 6610.46,11769.2 6615,11753.5C 6618.19,11748.5 6622.69,11745.3 6628.5,11744C 6634.2,11743.3 6639.87,11743.4 6645.5,11744.5C 6654.64,11744.2 6663.31,11742 6671.5,11738C 6681.83,11729.4 6687,11718.2 6687,11704.5C 6687.3,11695.5 6687.13,11686.5 6686.5,11677.5C 6685.96,11667.7 6687.8,11658.3 6692,11649.5C 6695.15,11645.7 6698.98,11643 6703.5,11641.5 Z"/></g>
<g><path style="opacity:0.986" fill="#000000" d="M 7472.5,11731.5 C 7520.37,11729.4 7563.37,11742.5 7601.5,11771C 7643.49,11809.6 7662.33,11857.5 7658,11914.5C 7653.21,11922.7 7646.04,11927.5 7636.5,11929C 7630.87,11930 7625.2,11930.6 7619.5,11931C 7602.82,11931.3 7586.16,11931.8 7569.5,11932.5C 7512.51,11931.4 7455.51,11931.2 7398.5,11932C 7390.13,11932.3 7381.8,11932.9 7373.5,11934C 7362.52,11934.8 7357.52,11940.6 7358.5,11951.5C 7364.88,12012.7 7396.21,12055.2 7452.5,12079C 7503.88,12095.4 7551.55,12088 7595.5,12057C 7603.17,12049.3 7610.83,12041.7 7618.5,12034C 7624.32,12029.9 7630.32,12029.5 7636.5,12033C 7643.47,12038.1 7647.47,12044.9 7648.5,12053.5C 7648.24,12057.4 7647.07,12061.1 7645,12064.5C 7641.53,12069 7637.7,12073.1 7633.5,12077C 7619.53,12088.3 7604.87,12098.7 7589.5,12108C 7530.2,12137.9 7470.87,12137.9 7411.5,12108C 7366.59,12083.1 7336.76,12045.9 7322,11996.5C 7296.3,11906.7 7317.46,11830.2 7385.5,11767C 7410.9,11746.3 7439.9,11734.5 7472.5,11731.5 Z M 7473.5,11775.5 C 7536.07,11770.9 7580.9,11796.5 7608,11852.5C 7617.56,11873.5 7611.06,11886 7588.5,11890C 7571.69,11891.2 7554.86,11892.1 7538,11892.5C 7490.51,11891.7 7443.01,11891.2 7395.5,11891C 7387.1,11890.5 7379.1,11888.5 7371.5,11885C 7367.5,11881.8 7365.5,11877.7 7365.5,11872.5C 7375.16,11837.7 7395.16,11810.5 7425.5,11791C 7440.63,11782.7 7456.63,11777.6 7473.5,11775.5 Z"/></g>
<g><path style="opacity:0.987" fill="#000000" d="M 8181.5,11731.5 C 8218.57,11729.9 8252.9,11738.7 8284.5,11758C 8292.46,11764.3 8300.13,11771 8307.5,11778C 8311.91,11781.1 8316.75,11783.3 8322,11784.5C 8324.96,11782.5 8327.63,11780.2 8330,11777.5C 8332.17,11769.3 8334.83,11761.3 8338,11753.5C 8349.26,11741.6 8360.59,11741.6 8372,11753.5C 8375.59,11761.1 8377.26,11769.1 8377,11777.5C 8377.67,11880.8 8377.67,11984.2 8377,12087.5C 8377.43,12096.8 8374.93,12105.1 8369.5,12112.5C 8363.15,12118 8355.81,12119.9 8347.5,12118C 8344.1,12116.6 8341.26,12114.4 8339,12111.5C 8335.72,12103.7 8333.05,12095.7 8331,12087.5C 8328.33,12081.5 8325.66,12075.5 8323,12069.5C 8303.04,12089.4 8280.21,12105.2 8254.5,12117C 8183.71,12142.4 8122.21,12128.3 8070,12074.5C 8035.32,12032.6 8018.15,11984.3 8018.5,11929.5C 8018.23,11879.9 8032.73,11835.2 8062,11795.5C 8093.03,11757.7 8132.86,11736.4 8181.5,11731.5 Z M 8194.5,11772.5 C 8247.19,11773.9 8286.69,11797.2 8313,11842.5C 8344.2,11902.2 8343.87,11961.9 8312,12021.5C 8280.13,12072.2 8234.3,12093.3 8174.5,12085C 8127.62,12074.5 8095.12,12047 8077,12002.5C 8069.99,11980.9 8064.82,11958.9 8061.5,11936.5C 8061.99,11892.2 8075.49,11852.5 8102,11817.5C 8126.42,11789.2 8157.26,11774.2 8194.5,11772.5 Z"/></g>
<g><path style="opacity:0.986" fill="#000000" d="M 4913.5,11732.5 C 4997,11730.6 5057.5,11766.6 5095,11840.5C 5116.6,11892.9 5119.26,11946.2 5103,12000.5C 5076.37,12073.9 5024.54,12116.7 4947.5,12129C 4874.32,12135.6 4815.82,12109.8 4772,12051.5C 4743.56,12008.1 4731.9,11960.4 4737,11908.5C 4744.04,11835.2 4780.21,11782 4845.5,11749C 4867.37,11739.7 4890.04,11734.2 4913.5,11732.5 Z M 4908.5,11774.5 C 4986.59,11771.1 5037.76,11806.4 5062,11880.5C 5074.25,11927.3 5069.58,11972.3 5048,12015.5C 5012.4,12072.4 4961.24,12095.2 4894.5,12084C 4837.04,12069.2 4800.88,12033 4786,11975.5C 4773.54,11922.9 4782.21,11874.2 4812,11829.5C 4836.5,11797.9 4868.67,11779.5 4908.5,11774.5 Z"/></g>
<g><path style="opacity:0.987" fill="#000000" d="M 6096.5,11732.5 C 6168.29,11731.9 6221.79,11762.6 6257,11824.5C 6270.08,11849.2 6275.75,11875.6 6274,11903.5C 6272.14,11917.7 6264.31,11926.5 6250.5,11930C 6171.86,11931.3 6093.19,11932 6014.5,11932C 6006.13,11932.3 5997.8,11932.9 5989.5,11934C 5978.86,11935.1 5973.19,11941 5972.5,11951.5C 5979.84,12013.4 6012.17,12056.2 6069.5,12080C 6125.43,12097.7 6175.43,12087.3 6219.5,12049C 6225.24,12042.6 6231.57,12036.9 6238.5,12032C 6242.07,12030.6 6245.74,12030.3 6249.5,12031C 6266.9,12043.5 6267.9,12057.1 6252.5,12072C 6198.44,12124.4 6134.77,12141.1 6061.5,12122C 5986.59,12097.1 5942.42,12045.6 5929,11967.5C 5920.08,11905.2 5933.75,11848.5 5970,11797.5C 6002.69,11757.4 6044.85,11735.7 6096.5,11732.5 Z M 6088.5,11775.5 C 6133.69,11772.4 6171.85,11787.1 6203,11819.5C 6215.97,11834.4 6223.8,11851.8 6226.5,11871.5C 6226.19,11878.6 6222.86,11883.8 6216.5,11887C 6210.36,11889.2 6204.03,11890.6 6197.5,11891C 6133.83,11891.7 6070.17,11891.7 6006.5,11891C 5982.87,11891 5975.37,11879.8 5984,11857.5C 5997.81,11822.4 6022.31,11797.9 6057.5,11784C 6067.67,11780 6078,11777.2 6088.5,11775.5 Z"/></g>
<g><path style="opacity:0.988" fill="#000000" d="M 9257.5,11732.5 C 9323.22,11732.9 9373.72,11760.6 9409,11815.5C 9425.62,11844.3 9432.95,11875.3 9431,11908.5C 9427.87,11920.6 9420.03,11927.5 9407.5,11929C 9401.87,11930 9396.2,11930.6 9390.5,11931C 9312.5,11931.3 9234.5,11931.7 9156.5,11932C 9147.71,11933 9139.37,11935.5 9131.5,11939.5C 9130.23,12009.2 9162.23,12055.7 9227.5,12079C 9291.08,12098.9 9345.08,12084.3 9389.5,12035C 9399.72,12027.9 9408.55,12029.4 9416,12039.5C 9421.45,12047 9421.79,12054.7 9417,12062.5C 9362.36,12124 9295.19,12143.5 9215.5,12121C 9154.03,12100.9 9113.19,12060 9093,11998.5C 9075.69,11936.3 9082.02,11876.6 9112,11819.5C 9145.31,11765.3 9193.81,11736.3 9257.5,11732.5 Z M 9244.5,11775.5 C 9311.76,11770.9 9357.93,11799.5 9383,11861.5C 9386.15,11873.7 9381.99,11882.2 9370.5,11887C 9366.58,11888.3 9362.58,11889.3 9358.5,11890C 9342.52,11891.1 9326.52,11892 9310.5,11892.5C 9259.51,11891.7 9208.51,11891.2 9157.5,11891C 9145.74,11890.6 9139.07,11884.6 9137.5,11873C 9143.59,11842.5 9159.26,11818.2 9184.5,11800C 9202.63,11787.1 9222.63,11778.9 9244.5,11775.5 Z"/></g>
<g><path style="opacity:0.988" fill="#000000" d="M 5365.5,11733.5 C 5375.84,11733.3 5386.17,11733.5 5396.5,11734C 5413.99,11737.5 5420.49,11748 5416,11765.5C 5414.4,11770.1 5411.24,11772.9 5406.5,11774C 5330.9,11767.7 5280.73,11800.2 5256,11871.5C 5252.97,11882 5250.97,11892.6 5250,11903.5C 5248.7,11925.6 5247.87,11947.8 5247.5,11970C 5248.5,12003.8 5248.66,12037.7 5248,12071.5C 5247.74,12082.9 5246.74,12094.2 5245,12105.5C 5239.66,12116.8 5230.82,12120.9 5218.5,12118C 5213.01,12115.5 5209.51,12111.4 5208,12105.5C 5206.87,12092.9 5206.21,12080.2 5206,12067.5C 5205.33,11971.8 5205.33,11876.2 5206,11780.5C 5205.6,11771.4 5207.26,11762.7 5211,11754.5C 5212.94,11751.9 5215.44,11750.1 5218.5,11749C 5223.83,11748.3 5229.17,11748.3 5234.5,11749C 5241.86,11751.5 5246.03,11756.7 5247,11764.5C 5248.58,11779.2 5250.41,11793.9 5252.5,11808.5C 5267.63,11792.9 5282.96,11777.4 5298.5,11762C 5317.83,11745.3 5340.16,11735.8 5365.5,11733.5 Z"/></g>
<g><path style="opacity:0.98" fill="#000000" d="M 6528.5,11733.5 C 6539.54,11733.2 6550.54,11733.7 6561.5,11735C 6578.54,11738.6 6584.71,11748.8 6580,11765.5C 6577.28,11770.6 6573.11,11773.7 6567.5,11775C 6524.96,11766.1 6488.8,11777.2 6459,11808.5C 6433.54,11835.8 6419.21,11868.1 6416,11905.5C 6415.67,11957.8 6415.33,12010.2 6415,12062.5C 6414.91,12075.6 6413.91,12088.6 6412,12101.5C 6407.77,12117 6397.94,12122.2 6382.5,12117C 6374.65,12112.5 6370.48,12105.6 6370,12096.5C 6369.67,12091.2 6369.33,12085.8 6369,12080.5C 6368.33,11980.5 6368.33,11880.5 6369,11780.5C 6369.22,11773.7 6370.22,11767 6372,11760.5C 6377.97,11749.5 6387.14,11745.7 6399.5,11749C 6404.67,11751.5 6408.5,11755.3 6411,11760.5C 6413.67,11770.5 6416.33,11780.5 6419,11790.5C 6420.68,11793.5 6423.01,11795.8 6426,11797.5C 6430.44,11794.7 6434.61,11791.6 6438.5,11788C 6451.68,11773.1 6466.35,11760.1 6482.5,11749C 6497.04,11741.1 6512.38,11735.9 6528.5,11733.5 Z"/></g>
<g><path style="opacity:0.99" fill="#000000" d="M 7918.5,11733.5 C 7931.17,11733.3 7943.84,11733.5 7956.5,11734C 7965.14,11735.3 7970.64,11740.1 7973,11748.5C 7973.87,11754.9 7973.54,11761.3 7972,11767.5C 7970.44,11770.7 7967.94,11772.9 7964.5,11774C 7888.55,11766.6 7838.38,11799.1 7814,11871.5C 7810.25,11883.9 7807.92,11896.6 7807,11909.5C 7806.06,11973.2 7805.06,12036.8 7804,12100.5C 7799.96,12116.3 7790.12,12121.8 7774.5,12117C 7768.07,12113 7764.57,12107.2 7764,12099.5C 7763.33,11988.5 7763.33,11877.5 7764,11766.5C 7765.19,11754.1 7772.02,11747.8 7784.5,11747.5C 7794.42,11748 7800.92,11753 7804,11762.5C 7805.2,11770.4 7805.86,11778.4 7806,11786.5C 7807.04,11793.2 7810.54,11798.2 7816.5,11801.5C 7829.35,11789.5 7841.68,11777 7853.5,11764C 7872.43,11747.9 7894.09,11737.7 7918.5,11733.5 Z"/></g>
<g><path style="opacity:0.989" fill="#000000" d="M 5681.5,11737.5 C 5721.06,11736.1 5755.73,11748.2 5785.5,11774C 5823.57,11807.6 5845.74,11849.8 5852,11900.5C 5859.97,11960 5846.63,12014 5812,12062.5C 5765.81,12119.9 5707.31,12137.4 5636.5,12115C 5603.53,12104.3 5572.2,12090.2 5542.5,12072.5C 5541.67,12124.2 5541.17,12175.8 5541,12227.5C 5540.81,12237.7 5539.48,12247.7 5537,12257.5C 5529.62,12267.7 5520.12,12270.2 5508.5,12265C 5505.57,12262.7 5503.4,12259.9 5502,12256.5C 5500.43,12248.2 5499.43,12239.9 5499,12231.5C 5498.33,12076.2 5498.33,11920.8 5499,11765.5C 5500.8,11745.4 5511.3,11738.5 5530.5,11745C 5534.49,11748 5537.32,11751.8 5539,11756.5C 5540.77,11765.1 5542.11,11773.8 5543,11782.5C 5544.23,11785.7 5546.23,11788.4 5549,11790.5C 5577.07,11770.7 5607.57,11755.5 5640.5,11745C 5654.09,11741.2 5667.76,11738.7 5681.5,11737.5 Z M 5659.5,11778.5 C 5732.63,11777 5780.47,11811 5803,11880.5C 5813.59,11922.6 5811.26,11963.9 5796,12004.5C 5769.14,12061.7 5723.97,12088.2 5660.5,12084C 5625.79,12081.6 5597.29,12067.1 5575,12040.5C 5540.81,11994.2 5530.15,11942.9 5543,11886.5C 5559.99,11826.7 5598.82,11790.7 5659.5,11778.5 Z"/></g>
<g><path style="opacity:0.988" fill="#000000" d="M 8683.5,11737.5 C 8720.68,11737.3 8753.34,11749.1 8781.5,11773C 8825.58,11812.8 8848.74,11862.6 8851,11922.5C 8853.93,11986.1 8833.09,12040.3 8788.5,12085C 8745.02,12123.1 8695.36,12133.8 8639.5,12117C 8604.7,12106.8 8572.03,12091.9 8541.5,12072.5C 8539.52,12130.5 8538.69,12188.5 8539,12246.5C 8537.23,12259.9 8529.56,12266.2 8516,12265.5C 8505.05,12265.9 8498.05,12260.9 8495,12250.5C 8495.3,12088.8 8495.63,11927.2 8496,11765.5C 8497.88,11745.3 8508.38,11738.4 8527.5,11745C 8531.49,11748 8534.32,11751.8 8536,11756.5C 8538.18,11768.2 8540.68,11779.9 8543.5,11791.5C 8576.58,11768.8 8612.58,11752.3 8651.5,11742C 8662.23,11739.9 8672.9,11738.4 8683.5,11737.5 Z M 8658.5,11778.5 C 8721.5,11777.6 8766.66,11805.2 8794,11861.5C 8808.52,11898.5 8811.52,11936.5 8803,11975.5C 8791.48,12027.4 8760.64,12061.9 8710.5,12079C 8665.58,12091.2 8624.58,12083.6 8587.5,12056C 8556.89,12027.6 8540.05,11992.4 8537,11950.5C 8532.88,11907.6 8542.55,11868.3 8566,11832.5C 8589.11,11801.2 8619.94,11783.2 8658.5,11778.5 Z"/></g>
<g><path style="opacity:0.992" fill="#000000" d="M 8966.5,11737.5 C 8979.93,11738.1 8987.43,11745.1 8989,11758.5C 8990.12,11815 8990.62,11871.5 8990.5,11928C 8990.63,11983.8 8990.13,12039.7 8989,12095.5C 8986.1,12115.2 8975.27,12122 8956.5,12116C 8952.29,12112.1 8949.79,12107.2 8949,12101.5C 8948.04,12096.9 8947.38,12092.2 8947,12087.5C 8946.33,11980.8 8946.33,11874.2 8947,11767.5C 8947.38,11759.9 8949.05,11752.5 8952,11745.5C 8955.86,11740.8 8960.7,11738.2 8966.5,11737.5 Z"/></g>
</svg>
